<?xml version="1.0" encoding="utf-8"?>
<!-- Generator: Adobe Illustrator 17.0.0, SVG Export Plug-In . SVG Version: 6.00 Build 0)  -->
<!DOCTYPE svg PUBLIC "-//W3C//DTD SVG 1.1//EN" "http://www.w3.org/Graphics/SVG/1.1/DTD/svg11.dtd">
<svg version="1.1" id="Layer_1" xmlns="http://www.w3.org/2000/svg" xmlns:xlink="http://www.w3.org/1999/xlink" x="0px" y="0px"
	 width="689.811px" height="707.606px" viewBox="0 0 689.811 707.606" enable-background="new 0 0 689.811 707.606"
	 xml:space="preserve">
<linearGradient id="SVGID_1_" gradientUnits="userSpaceOnUse" x1="345.2444" y1="674.8188" x2="345.2444" y2="27.0047">
	<stop  offset="0.2396" style="stop-color:#4AFFFF"/>
	<stop  offset="0.5864" style="stop-color:#235C8B"/>
	<stop  offset="0.7786" style="stop-color:#0D004A"/>
</linearGradient>
<circle fill="url(#SVGID_1_)" stroke="#000000" stroke-miterlimit="10" cx="345.244" cy="350.912" r="323.907"/>
<g>
	<g>
		<circle fill="#339933" cx="345.244" cy="350.912" r="97.325"/>
		<g>
			<g>
				<g>
					<path fill="#4471BF" d="M446.187,372.91c0.355-1.609-0.397,0.576-1.07,2.279c-0.334,0.853-0.654,1.586-0.821,1.674
						c-0.15,0.093-0.101-0.444,0.215-2.151c-0.229,0.564-0.427,1.218-0.664,1.926c-0.245,0.706-0.488,1.478-0.728,2.298
						c-0.233,0.822-0.479,1.687-0.732,2.579c-0.273,0.887-0.554,1.801-0.838,2.724c-1.108,3.703-2.522,7.493-3.87,10.223
						c-0.663,0.077-0.672-1.208-1.172-1.323c-0.249-0.059-0.62,0.172-1.249,0.996c-0.676,0.8-1.612,2.194-3.043,4.424
						c-0.951,1.494-1.645,2.653-2.146,3.564c-0.528,0.895-0.877,1.533-1.072,2.019c-0.396,0.968-0.23,1.29-0.018,1.584
						c0.405,0.577,1.12,1.126-2.656,6.39c0,0,0.365-0.418,0.861-1.084c0.505-0.661,1.179-1.542,1.852-2.423
						c0.693-0.869,1.292-1.804,1.774-2.484c0.474-0.686,0.789-1.143,0.789-1.143c-1.508,4.292-5.783,10.677-11.603,16.732
						c-2.854,3.08-6.177,5.974-9.48,8.732c-1.718,1.299-3.341,2.685-5.053,3.858c-0.84,0.609-1.668,1.209-2.481,1.798
						c-0.832,0.563-1.648,1.115-2.445,1.655c-5.238,2.533-10.545,4.177-16.177,5.723c-5.665,1.499-11.636,2.926-18.686,4.709
						c0.75-0.355,4.127-1.552,3.281-1.972c-1.357,0.012-3.127,0.425-4.926,0.774c-1.801,0.33-3.585,0.86-4.933,1.105
						c-3.642,1.114-3.098,1.497-1.925,1.765c1.164,0.269,2.946,0.423,1.575,1.106c-1.577,0.353-3.133,0.774-4.743,1.03
						c-1.607,0.271-3.25,0.623-4.991,0.743c-1.739,0.142-3.569,0.329-5.534,0.241c-0.982-0.023-1.998-0.066-3.052-0.132
						c-1.053-0.076-2.142-0.248-3.274-0.411c0,0-0.692-0.208-1.729-0.521c-1.034-0.311-2.393-0.833-3.741-1.306
						c-1.352-0.458-2.675-1.008-3.658-1.428c-0.981-0.411-1.635-0.686-1.635-0.686c-0.991,0.241-2.028,0.306-3.118,0.273
						c-1.09-0.032-2.24-0.135-3.432-0.348c-2.367-0.491-4.942-1.248-7.643-2.35c-5.434-2.154-11.401-5.299-18.179-8.708
						c-0.88-1.425-4.87-3.755-8.714-6.386c-3.793-2.683-7.431-5.648-7.921-7.279c-2.578-2.416-2.024-3.43-1.238-4.434
						c0.783-0.996,1.776-2.003,0.362-4.377c-2.784-3.836-1.504-2.765-0.329-1.654c0.606,0.543,1.248,1.049,1.357,0.978
						c0.129-0.089-0.327-0.711-1.628-2.651c0.442,0.449,0.823,0.862,1.153,1.245c0.346,0.368,0.643,0.704,0.892,1.02
						c0.5,0.63,0.82,1.168,1.029,1.653c0.41,0.977,0.389,1.722,0.466,2.536c0.162,1.602,0.522,3.772,6.167,7.994l-0.166-0.89
						c2.534,1.422,5.489,3.965,8.549,6.037c1.494,1.086,3.027,2.014,4.43,2.729c1.385,0.748,2.701,1.169,3.759,1.248
						c0.814,0.45,1.526,0.843,2.147,1.185c0.631,0.322,1.165,0.606,1.614,0.858c0.898,0.504,1.455,0.878,1.765,1.158
						c0.621,0.561,0.253,0.748-0.354,0.861c-1.202,0.228-3.414,0.151-0.223,2.309c1.165,0.079,3.035,0.558,5.239,1.071
						c1.104,0.242,2.291,0.503,3.506,0.769c1.21,0.266,2.472,0.446,3.686,0.662c1.212,0.226,2.412,0.364,3.529,0.456
						c1.115,0.098,2.14,0.181,3.03,0.19c1.792-0.039,3.011-0.238,3.244-0.712c0,0-0.71-0.125-1.774-0.313
						c-1.07-0.159-2.473-0.49-3.878-0.814c-0.703-0.16-1.405-0.32-2.064-0.471c-0.65-0.183-1.257-0.355-1.777-0.501
						c-1.041-0.293-1.734-0.488-1.734-0.488c1.813,0.458,0.545-0.34,1.323-0.303c1.758,1.045,4.536,1.567,7.517,1.806
						c1.502,0.066,3.044,0.125,4.559,0.08c1.507-0.085,2.987-0.169,4.357-0.247c2.734-0.297,4.981-0.462,6.206-0.359
						c1.216,0.151,1.43,0.769-0.071,2.205c-0.382,0.079-0.921,0.12-1.535,0.147c-0.612,0.004-1.298-0.025-1.974-0.036
						c-1.353-0.033-2.674,0.011-3.303,0.253c0.215,0.742,2.341,1.049,5.152,1.284c1.409,0.043,2.989,0.052,4.589,0.069
						c1.6-0.036,3.221-0.116,4.72-0.113c1.524-0.422,3.078-0.991,4.692-1.511c1.611-0.564,3.27-1.222,5.031-1.768
						c3.494-1.296,7.353-2.363,11.936-3.349c1.613-0.251,2.011-0.097,2.418,0.084c0.407,0.178,0.813,0.357,2.431,0.004
						c1.126-0.455,2.15-0.948,3.116-1.396c0.964-0.452,1.883-0.828,2.726-1.232c1.672-0.839,3.186-1.453,4.52-2.099
						c1.333-0.645,2.566-1.153,3.721-1.664c1.142-0.534,2.235-1.013,3.344-1.493c2.172-1.032,4.419-2.055,7.057-3.756
						c2.661-1.658,5.737-3.98,9.416-7.608c5.305-3.781,10.241-9.202,14.45-15.103c4.255-5.898,7.679-12.303,10.927-18.091
						c-0.955,0.693-0.226-1.36,0.731-3.939c0.448-1.302,1.024-2.716,1.479-3.986c0.442-1.276,0.826-2.385,1.046-3.019
						c0.568-0.815,1.39-2.965,2.259-5.568c0.367-1.314,0.718-2.746,1.021-4.178c0.293-1.433,0.423-2.883,0.521-4.202
						c-0.365,3.102,0.428,1.285,0.456,3.502c0.117-1.504,0.253-2.847,0.403-4.05c0.162-1.202,0.222-2.276,0.366-3.222
						c0.129-0.948,0.275-1.774,0.432-2.497c0.121-0.725,0.26-1.345,0.409-1.879c0.599-2.133,1.377-2.867,1.958-3.213
						c0.118,2.384,0.377,4.249,0.549,5.881c0.173,1.641,0.322,3.046,0.474,4.494c0.078,1.455,0.082,2.968-0.054,4.824
						c-0.062,0.929-0.253,1.929-0.452,3.055C446.832,370.286,446.618,371.539,446.187,372.91z"/>
					<path fill="#4471BF" d="M253.932,393.631c1.64,0.565-0.395-4.161-1.575-8.063c-1.145-3.935-1.786-6.823,1.212-2.252
						c-0.995-3.481-1.646-6.014-2.4-8.123c-0.321-1.068-0.656-2.033-1.013-2.971c-0.363-0.936-0.742-1.845-1.081-2.817
						c0.063,1.05,0.144,1.801,0.2,2.326c0.049,0.527,0.061,0.829,0.047,0.972c-0.028,0.285-0.165-0.07-0.336-0.542
						c-0.342-0.942-0.828-2.372-0.862-0.044c-3.504-13.151-3.908-26.853-1.606-39.817c2.298-12.982,7.345-25.195,14.363-35.789
						c1.431-1.896,2.99-3.646,4.41-5.448c1.53-1.72,2.934-3.497,4.465-5.141c2.948-3.384,6.013-6.549,9.131-9.651
						c3.12-3.105,6.416-6.008,9.836-8.871c0.878-0.687,1.758-1.376,2.64-2.066l1.331-1.041l1.378-0.983
						c0.926-0.657,1.854-1.317,2.786-1.979c0.963-0.621,1.93-1.245,2.901-1.871c1.294-0.591,2.381-0.93,3.229-1.189
						c0.851-0.253,1.48-0.389,1.931-0.432c0.901-0.085,1.085,0.203,0.89,0.683c-0.394,0.963-2.28,2.687-3.12,3.792
						c0,0,0.784-0.351,1.96-0.877c0.588-0.263,1.274-0.57,2.009-0.898c0.736-0.326,1.546-0.614,2.343-0.933
						c0.8-0.312,1.6-0.623,2.35-0.915c0.763-0.257,1.474-0.497,2.084-0.703c1.221-0.408,2.035-0.679,2.035-0.679
						s-0.789,0.371-1.971,0.928c-0.587,0.28-1.273,0.606-2.007,0.956c-0.717,0.383-1.482,0.791-2.248,1.199
						c-1.539,0.784-3.016,1.681-4.12,2.349c-1.102,0.664-1.837,1.106-1.837,1.106c0.027,1.037,5.57-1.454,8.945-1.91
						c0,0,0.209-0.108,0.532-0.243c0.324-0.134,0.756-0.313,1.188-0.491c0.866-0.358,1.731-0.717,1.731-0.717
						c-1.417,2.797-7.487,4.881-14.355,8.056c-6.861,3.108-14.412,7.621-18.649,12.321c1.389-1.279,2.404-2.213,3.126-2.879
						c0.732-0.655,1.145-1.074,1.325-1.321c0.361-0.495-0.208-0.305-1.011,0.045c-1.626,0.663-4.069,2.169-1.881-0.304
						c0,0-0.249,0.174-0.597,0.466c-0.353,0.287-0.823,0.669-1.293,1.052c-0.942,0.766-1.883,1.532-1.883,1.532
						c0.809-0.716,1.766-1.661,2.883-2.8c1.137-1.113,2.481-2.364,3.998-3.761c3.094-2.706,7.059-5.806,12.014-8.598
						c-7.058,3.549-13.54,8.189-19.292,13.431c-5.763,5.245-10.642,11.268-14.67,17.552c-8.104,12.603-12.192,26.521-13.313,38.995
						c-0.15-0.762-0.159-2.779-0.869-0.587c-0.2,1.117-0.402,2.177-0.471,3.2c-0.071,1.023-0.103,1.995-0.107,2.919
						c0.005,0.461,0.011,0.91,0.016,1.348c0.04,0.438,0.079,0.866,0.117,1.283c0.089,0.832,0.196,1.617,0.312,2.359
						c0.2,1.482,0.598,2.802,0.883,3.983c0.286,1.18,0.542,2.236,0.774,3.193c0,0-0.234-0.961-0.369-1.931
						c-0.157-0.973-0.314-1.946-0.314-1.946c-0.29,1.367-0.458,2.968-0.375,4.693c0.023,0.863,0.072,1.757,0.138,2.669
						c0.085,0.911,0.238,1.837,0.374,2.771c0.523,3.743,1.578,7.516,2.284,10.718c0.06,1.813,0.188,3.475,0.283,5.16
						c0.185,1.662,0.388,3.338,0.744,5.143c0.797,3.574,2.107,7.741,5.18,13.118l-1.053,0.045c0,0,0.259,0.574,0.648,1.436
						c0.403,0.855,0.877,2.031,1.46,3.152c0.576,1.127,1.152,2.254,1.583,3.099c0.208,0.428,0.419,0.763,0.554,1.005
						c0.138,0.24,0.217,0.378,0.217,0.378c-0.758-1.008-1.051-1.266-1.17-1.182c-0.115,0.081-0.06,0.506,0.005,0.777
						c-0.627-0.487-0.708-1.054-1.502-2.662c-0.787,0.076-0.962,1.493-0.659,3.635c0.388,2.084,1.226,4.921,2.577,7.609
						c-0.5-0.791-0.999-1.582-1.462-2.315c-0.454-0.738-0.867-1.42-1.263-1.953c0.965,2.253,3.844,6.873,5.837,10.167
						c2.064,3.218,3.056,5.291-0.322,2.512c-1.208-1.354-2.09-2.677-2.898-3.828c-0.811-1.15-1.416-2.231-1.927-3.227
						c-0.514-0.993-0.944-1.894-1.31-2.755c-0.34-0.879-0.635-1.706-0.924-2.52c-0.291-0.81-0.578-1.612-0.88-2.451
						c-0.286-0.849-0.606-1.725-0.999-2.669c-0.411-0.936-0.86-1.958-1.37-3.118C255.318,396.339,254.618,395.104,253.932,393.631z"
						/>
					<path fill="#4471BF" d="M297.796,432.382c-1.988-1.336-2.706-2.107-2.832-2.329c-0.11-0.246,0.441-0.051,1.185,0.261
						c1.491,0.628,3.838,1.557,3.184,0.613c0,0,0.456,0.256,1.141,0.64c0.674,0.403,1.619,0.855,2.555,1.323
						c0.94,0.459,1.864,0.95,2.582,1.268c0.719,0.315,1.198,0.524,1.198,0.524c-0.113,0.542-2.106-0.01-4.167-0.8
						C300.542,433.173,298.418,432.171,297.796,432.382z"/>
					<path fill="#4471BF" d="M361.867,249.938c0.367,0.522,2.215,0.93,4.411,1.415c2.184,0.541,4.748,1.053,6.515,1.728
						c0.924,0.16,1.762,0.304,2.542,0.439c0.776,0.152,1.495,0.292,2.182,0.426c1.371,0.288,2.658,0.463,3.979,0.861
						c2.66,0.734,5.717,1.746,10.455,4.449c-4.345-0.754-2.656,1,0.705,3.478c3.336,2.563,8.179,6.261,10.638,9.142
						c-1.104-0.668-2.438-1.476-3.974-2.286c-1.564-0.768-3.214-1.723-5.03-2.566c-0.896-0.441-1.804-0.904-2.711-1.39
						c-0.927-0.451-1.861-0.911-2.779-1.406c-1.817-1.031-3.696-1.944-5.393-3.111c0.6-0.169-0.734-1.049-2.664-2.059
						c-0.485-0.249-1.002-0.513-1.53-0.784c-0.544-0.235-1.099-0.476-1.644-0.712c-1.096-0.461-2.157-0.907-3.012-1.244
						c-2.896-0.153-2.085,1.093-3.306,1.663c-0.609,0.302-1.692,0.357-3.994,0.206c-1.151-0.072-2.578-0.32-4.428-0.486
						c-0.921-0.101-1.938-0.226-3.062-0.379c-1.13-0.108-2.372-0.226-3.736-0.356c-0.982-0.263-2.355-0.379-3.838-0.518
						c-0.742-0.062-1.511-0.143-2.279-0.188c-0.768-0.031-1.532-0.062-2.26-0.091c-2.909-0.2-5.247-0.224-4.949-0.982
						c-1.418-0.231-2.774,0.128-4.148,0.498c-1.377,0.363-2.784,0.554-4.391,0.194l-1.635-0.395c0,0,0.856-0.166,2.139-0.415
						c1.284-0.256,3.017-0.448,4.749-0.71c1.734-0.243,3.483-0.339,4.794-0.476c0.656-0.063,1.204-0.11,1.587-0.115
						c0.384-0.015,0.603-0.024,0.603-0.024c0.515,0.213,1.563,0.637,2.832,0.587c-0.648-0.262-0.024-0.514,1.153-0.746
						c1.173-0.187,2.899-0.348,4.441-0.547c3.059-0.294,5.431-0.689,0.86-2.156c0,0-0.309-0.034-0.851-0.07
						c-0.542-0.039-1.317-0.095-2.246-0.163c-1.857-0.183-4.342-0.201-6.825-0.256c-1.241-0.016-2.483,0.057-3.646,0.079
						c-1.164,0.032-2.25,0.055-3.177,0.15c-1.857,0.148-3.094,0.247-3.094,0.247c-1.219-0.08-1.712-0.149-1.661-0.345
						c0.053-0.181,0.653-0.455,1.644-0.681c0.989-0.241,2.361-0.497,3.942-0.739c1.583-0.188,3.375-0.313,5.192-0.415
						c2.644,0.294,4.577,0.494,6.104,0.691c1.526,0.22,2.649,0.345,3.667,0.404c1.019,0.037,1.921,0.111,3.013,0.109
						C358.838,249.927,360.124,249.836,361.867,249.938z"/>
					<path fill="#4471BF" d="M313.179,257.243l-1.144-0.033c0,0,1.015-0.369,2.537-0.923c1.513-0.586,3.602-1.146,5.663-1.807
						c2.095-0.528,4.184-1.114,5.776-1.433c1.593-0.322,2.655-0.536,2.655-0.536s-0.991,0.227-2.477,0.568
						c-1.49,0.314-3.431,0.938-5.383,1.468c-1.932,0.614-3.847,1.272-5.276,1.772C314.119,256.873,313.179,257.243,313.179,257.243z
						"/>
					<path fill="#4471BF" d="M419.67,279.893c-0.686-0.553-1.298-1.133-1.895-1.708c-0.614-0.557-1.196-1.125-1.779-1.692
						c-0.584-0.566-1.162-1.138-1.783-1.684c-0.639-0.526-1.308-1.039-2.037-1.523l0.878-1.67c0,0,0.439,0.501,1.098,1.253
						c0.671,0.736,1.511,1.769,2.328,2.815C418.163,277.728,419.67,279.893,419.67,279.893z"/>
					<path fill="#4471BF" d="M267.585,300.714c-0.208,1.131-0.823,2.471-1.463,4.008c-0.335,0.76-0.712,1.548-1.11,2.347
						c-0.37,0.813-0.749,1.644-1.126,2.471c-1.528,3.289-2.766,6.616-2.727,8.49c1.082-2.644,0.343-1.883,0.353-2.64
						c0,0-0.167,0.306-0.403,0.772c-0.239,0.466-0.557,1.088-0.876,1.71c-0.318,0.625-0.637,1.25-0.876,1.719
						c-0.216,0.479-0.359,0.798-0.359,0.798C260.188,313.444,263.649,307.375,267.585,300.714z"/>
					<path fill="#4471BF" d="M439.079,309.114c0.326,0.669,0.635,1.305,0.93,1.912c0.281,0.613,0.548,1.198,0.804,1.758
						c0.537,1.112,1.027,2.126,1.488,3.082c0.851,1.938,1.754,3.589,2.448,5.384c0.714,1.788,1.459,3.648,2.005,5.977
						c0.624,2.308,1.068,5.077,1.363,8.591c-0.115,3.085-1.406-3.566-1.26,0.847c0.161,4.364,0.913,5.302,1.452,7.427l0.467-1.734
						c-0.24,0.87-0.403,2.189-0.621,3.588c-0.253,1.4-0.512,2.878-0.803,4.068c-0.596,2.348-1.365,3.501-2.34,0.901
						c0.219-8.473-1.637-14.551-3.492-19.861c-1.955-5.334-3.918-9.954-5.333-16.262c0,0,0.247-0.705,0.494-1.409
						c0.244-0.709,0.481-1.428,0.481-1.428s-0.921-1.736-1.841-3.472c-0.44-0.875-0.979-1.7-1.344-2.337
						c-0.375-0.631-0.626-1.052-0.626-1.052c-0.089-0.556,0.51-0.624-0.933-2.823c-1.712-2.165-1.403-1.17-0.813,0.351
						c0.632,1.504,1.335,3.651,0.831,3.66c0,0-0.49-0.793-1.224-1.981c-0.799-1.15-1.83-2.699-2.91-4.205
						c-1.139-1.47-2.213-2.972-3.113-4.029c-0.891-1.06-1.485-1.767-1.485-1.767c-0.951-1.538,1.321,0.888,1.177,0.343
						c-0.412-0.784-0.851-1.502-1.305-2.169c-0.482-0.645-0.984-1.236-1.487-1.791c-0.505-0.555-1.014-1.074-1.52-1.572
						c-0.516-0.49-1.057-0.936-1.571-1.392c-2.048-1.84-4.021-3.494-5.552-6.231c0,0,0.115,0.087,0.317,0.239
						c0.205,0.149,0.49,0.37,0.817,0.651c0.666,0.555,1.554,1.295,2.442,2.034c0.91,0.725,1.728,1.541,2.38,2.122
						c0.643,0.591,1.071,0.985,1.071,0.985c-3.498-4.361-6.835-7.961-9.998-11.176c-3.139-3.25-6.244-5.956-9.321-8.518
						c9.232,6.593,16.299,11.979,22.672,18.056c3.088,3.102,6.086,6.301,8.64,10.11c0.325,0.472,0.652,0.948,0.981,1.426
						c0.299,0.498,0.601,0.999,0.905,1.504c0.593,1.019,1.207,2.051,1.763,3.139C437.189,304.256,438.251,306.567,439.079,309.114z"
						/>
				</g>
			</g>
		</g>
	</g>
	<g>
		<circle fill="#339933" cx="345.244" cy="350.912" r="97.325"/>
		<g>
			<g>
				<g>
					<path fill="#FFFFFF" d="M387.772,258.688c-4.615-1.69,2.524,1.538-0.152,0.328c0,0-0.63-0.235-1.576-0.588
						c-0.473-0.174-1.024-0.377-1.614-0.595c-0.6-0.191-1.24-0.395-1.88-0.599c-2.541-0.862-5.14-1.504-5.14-1.504
						c2.132,0.516,3.001,0.631,3.316,0.572c0.32-0.071,0.096-0.342,0.027-0.507c-0.069-0.165,0.017-0.225,0.965,0.131
						C382.659,256.296,384.504,256.99,387.772,258.688z"/>
					<path fill="#FFFFFF" d="M371.242,256.247c0,0-0.487-0.013-0.973-0.026c-0.484-0.021-0.974-0.006-0.974-0.006
						c-1.365-0.369-3.404-0.99-4.65-1.395c-1.251-0.377-1.691-0.64,0.218-0.483c0.908,0.309,1.811,0.628,2.839,0.922
						C368.729,255.558,369.881,255.834,371.242,256.247z"/>
					<path fill="#41B649" d="M378.461,268.631c0,0-0.774-0.37-1.547-0.74c-0.387-0.186-0.775-0.372-1.066-0.512
						c-0.297-0.125-0.494-0.208-0.494-0.208c1.612,0.589,2.619,0.355,4.987,1.435c0,0-0.466-0.014-0.94,0.004
						C378.931,268.621,378.461,268.631,378.461,268.631z"/>
					<path fill="#41B649" d="M257.81,375.498c0.005,0.406,0.062,0.986,0.218,1.924c-0.365-0.098-0.7-0.41-1.122-1.134
						c-0.398-0.73-0.987-1.845-1.572-3.633c-0.711-3.271-2.039-10.836-1.169-9.671l0.14,0.833c0.235-0.127,0.468-1.218,0.554-2.776
						c0.085-1.56,0.179-3.604-0.068-5.679c-0.441-0.919-1.074,2.635-1.867-1.41c-0.224-2.554-0.131-5.384,0.077-8.072
						c0.159-1.34,0.339-2.646,0.534-3.866c0.204-1.219,0.516-2.343,0.778-3.339c0,0-0.164-1.005-0.328-2.01
						c-0.117-1.01-0.233-2.02-0.233-2.02c0.491-2.489,1.079-3.994,1.595-5.317c0.493-1.329,1.073-2.44,1.732-4.106l-0.246,2.65
						c0.464-0.848,0.817-0.829,1.27-1.364c0.482-0.526,0.925-1.638,1.972-4.617c0.38-2.104,0.752-3.325,1.158-4.713
						c0.378-1.402,0.983-2.894,1.971-5.538c1.948-2.797,4.088-6.872,6.726-10.865c2.605-4.003,5.606-7.954,8.382-10.822
						c1.957-3.511,6.468-7.612,11.146-10.989c4.663-3.43,9.429-6.157,11.528-8.617c1.468-0.725,2.772-1.368,3.942-1.945
						c1.165-0.585,2.226-1.042,3.151-1.523c0.463-0.241,0.9-0.468,1.315-0.684c0.42-0.207,0.817-0.403,1.197-0.59
						c0.756-0.384,1.431-0.755,2.06-1.12c1.261-0.729,2.361-1.365,3.531-2.042c1.164-0.719,2.448-1.351,4.084-2.092
						c1.282-0.221,2.051-0.265,2.423-0.207c0.37,0.047,0.338,0.176,0.028,0.361c-0.628,0.333-2.318,1.065-4.154,1.77
						c-1.83,0.728-3.743,1.646-4.882,2.234c-1.114,0.665-1.437,1.055-0.094,0.837c6.947-2.355,14.413-4.174,22.074-5.115
						c7.661-0.886,15.513-0.815,22.941,0.311c3.883-0.166-2.508-2.145,5.398-0.952c-2.691,0.016,0.036,1.369,2.738,2.058
						c-2.955-0.812,0.154-0.358,0.562-0.538l-2.144-0.66c-0.286-0.569,0.22-0.69,1.234-0.547c1.016,0.135,2.535,0.533,4.218,1.134
						c3.414,1.065,7.435,2.898,10.082,3.442c2.013,1.501-2.649-1.054-3.256-0.599c-0.101,0.434,0.303,1.111,1.537,2.04
						c1.244,0.906,3.28,2.149,6.403,3.853c6.526,2.658,11.506,6.186,16.138,10.242c2.332,2.021,4.54,4.241,6.841,6.628
						c1.161,1.184,2.265,2.49,3.496,3.769c0.581,0.671,1.173,1.356,1.778,2.055c0.617,0.689,1.248,1.393,1.85,2.151
						c0.136-1,2.622,2.599,4.099,4.622c-1.177-1.104-1.015-0.275-0.368,1.12c0.624,1.413,1.654,3.45,2.378,4.743
						c1.068,1.468,2.002,2.137,2.976,3.101c0.468,0.492,0.954,1.054,1.481,1.819c0.532,0.763,1.108,1.729,1.651,3.073
						c0,0-0.079-1.035-0.205-2.065c-0.147-1.027-0.293-2.055-0.293-2.055c-0.225-0.507-0.621-1.334-1.2-2.296
						c-0.593-0.955-1.314-2.075-2.072-3.233c-0.8-1.132-1.669-2.283-2.463-3.361c-0.815-1.064-1.636-2.001-2.259-2.771
						c-0.055-1.497-3.26-5.315-6.297-8.499c-3.057-3.172-5.967-5.711-4.576-5.88l1.62,1.924c2.974,3.493,5.49,5.829,8.007,8.182
						c0.636,0.585,1.27,1.168,1.913,1.76c0.64,0.598,1.25,1.239,1.899,1.892c1.32,1.293,2.578,2.79,3.92,4.55
						c1.586,3.194,2.363,5.459,2.88,7.496c0.583,2.004,0.818,3.823,1.407,6.078c1.721,5.275,2.652,6.525,3.905,9.183
						c0.823,2.295,1.261,4.072,1.404,5.635c0.18,1.555,0.234,2.858,0.251,4.244c0.367,1.652,0.206-0.827,0.574,0.836
						c0.288,2.212,0.246,4.71,0.551,6.377c0.69,0.345,0.769-1.801,0.57-4.751c-0.168-1.462-0.346-3.134-0.615-4.773
						c-0.313-1.629-0.565-3.259-0.843-4.642c0.567,1.363,0.859,1.648,1.28,3.607c0.459,1.67,0.123,1.388,0.056,1.677l0.75,3.391
						c0.195,0.009,0.441-0.195,0.748,0.168c0.326,0.36,0.646,1.302,0.965,3.607c0,0-0.106,0.704-0.211,1.407
						c-0.047,0.35-0.115,0.701-0.171,0.964c-0.053,0.262-0.089,0.437-0.089,0.437c0.3,4.56,0.615,7.941,1.119,8.724
						c0.22,0.398,0.463,0.118,0.618-0.996c0.08-0.559,0.144-1.331,0.183-2.338c0.018-0.504,0.037-1.067,0.035-1.691
						c-0.033-0.623-0.069-1.307-0.108-2.055l-0.877-0.974c0,0,0.018-0.717,0.045-1.793c-0.025-1.077-0.058-2.513-0.091-3.95
						c-0.025-1.443-0.19-2.873-0.252-3.959c-0.04-0.542-0.074-0.994-0.097-1.31c-0.02-0.317-0.044-0.496-0.044-0.496
						c0.453-2.025,1.582,5.246,2.302,5.297c0.288,0.385,0.458,0.048,0.537-0.752c0.045-0.794-0.019-2.047-0.141-3.492
						c-0.088-1.452-0.393-3.064-0.646-4.608c-0.234-1.549-0.594-2.987-0.851-4.084c-1.84-4.308,0.141,2.946,0.626,6.178
						c0,0-0.708-1.522-1.417-3.044c-0.748-1.501-1.545-2.962-1.545-2.962c-0.51-1.712-1.137-4.264-0.738-4.311
						c-0.261-2.049,1.595-0.208,0.203-3.596c-1.799-4.961-2.305-4.905-2.608-4.696c-0.345,0.227-0.584,0.63-2.466-3.27
						c-0.103,1.385,1.28,5.367,2.517,9.642c1.172,4.3,2.244,8.872,2.357,11.16c0,0,0.218,0.918,0.436,1.836
						c0.236,0.915,0.398,1.845,0.398,1.845c-0.316,1.688-1.537-5.918-0.708-0.277c-1.374-4.52-2.683-10.045-4.234-15.285
						c-0.741-2.63-1.603-5.151-2.352-7.482c-0.859-2.276-1.551-4.394-2.27-6.044c0.348-0.261-0.244-2.208-0.49-3.477
						c-0.279-1.242-0.041-1.917,2.053,0.497c-0.749-1.478-1.309-2.595-1.91-3.885c-0.594-1.295-1.423-2.639-2.83-4.472
						c-4.312-4.576-7.217-7.886-10.052-11.11c-0.707-0.805-1.45-1.56-2.18-2.35c-0.735-0.785-1.476-1.587-2.314-2.343
						c-0.823-0.771-1.685-1.56-2.613-2.368c-0.963-0.766-1.992-1.552-3.11-2.364c1.042,1.075-0.895-0.037-1.33-0.014
						c-1.517-1.164-2.563-2.045-3.267-2.718c-0.712-0.66-1.1-1.087-1.25-1.412c-0.307-0.641,0.281-0.785,0.701-0.987
						c0.418-0.202,0.664-0.465-0.367-1.369c-1.027-0.901-3.332-2.492-8.238-4.807c-0.853-0.397-1.615-0.726-2.264-0.979
						c-0.655-0.242-1.209-0.385-1.618-0.472c-0.823-0.166-1.102-0.04-0.679,0.406c0.587,0.346,1.165,0.697,1.75,1.084
						c0.577,0.403,1.171,0.818,1.818,1.241s1.346,0.852,2.133,1.285c0.769,0.467,1.622,0.944,2.601,1.422
						c-0.138,0.164,1.353,1.055,2.291,1.866c0.958,0.783,1.448,1.328-0.487,0.558c-0.982-0.701-1.986-1.215-2.903-1.749
						c-0.934-0.504-1.792-1.016-2.671-1.388c-1.746-0.762-3.298-1.486-4.877-2.005c-3.118-1.124-6.03-2.055-9.628-3.463
						l-2.575-0.234c-0.701-0.25-1.698-0.458-2.83-0.735c-1.136-0.266-2.413-0.583-3.747-0.808c-1.323-0.264-2.679-0.535-3.953-0.789
						c-1.278-0.233-2.465-0.493-3.448-0.788c-5.814-1.021-5.594-1.27-3.801-1.413c0.895-0.064,2.179-0.086,3.277-0.127
						c1.091,0.004,1.995-0.008,2.131-0.151c0,0-0.609-0.133-1.521-0.331c-0.913-0.197-2.146-0.37-3.375-0.583
						c-1.229-0.214-2.462-0.407-3.394-0.492c-0.93-0.106-1.55-0.177-1.55-0.177c-5.807,0.331-10.506-0.13-15.096-0.22
						c-4.568-0.156-9.023,0.082-13.663,1.978l0.895-0.635c2.716-0.823,2.216-1.109,0.5-1.13c-0.855-0.003-1.996,0.144-3.18,0.309
						c-1.182,0.173-2.405,0.382-3.375,0.688l-2.963,1.228c-1.086,0.75-2.762,1.63-4.847,2.477c-2.042,0.962-4.505,1.892-7.022,3.091
						c-5.079,2.282-10.57,5.223-14.552,8.214c-1.773,1.176-2.665,1.405-1.187,0.263c0,0-0.584,0.36-1.461,0.899
						c-0.877,0.541-2.06,1.247-3.18,2.045c-1.13,0.783-2.287,1.542-3.117,2.159c-0.825,0.624-1.376,1.041-1.376,1.041
						c-0.329,0.826-0.866,1.566-1.565,2.285c-0.67,0.751-1.495,1.489-2.432,2.27c-0.952,0.765-1.953,1.635-3,2.614
						c-0.525,0.487-1.063,1-1.604,1.545c-0.531,0.555-1.038,1.166-1.555,1.802c-0.606,0.963-1.092,1.764-1.506,2.524
						c-0.392,0.772-0.751,1.48-1.131,2.227c-0.374,0.748-0.815,1.498-1.296,2.42c-0.482,0.922-1.065,1.969-1.819,3.236
						c-4.724,5.843-7.389,11.309-9.576,16.648c-2.162,5.377-3.885,10.658-6.081,17.072c0.183,0.579,0.211,1.518,0.226,2.509
						c0.048,0.998,0.061,2.045,0.127,2.829c0.132,1.572,0.478,2.069,1.717-0.892c-1.604,6.643-2.626,13.109-3.007,19.613
						c-0.373,6.499-0.092,13.054,1.161,19.742c0.398,0.878,0.794,1.827,1.192,2.669c0.755,0.669,1.953,1.903,3.162,3.145
						c1.191,1.251,2.558,2.46,3.695,3.15c1.134,0.694,2.048,0.87,2.483,0.073C258.553,380.485,258.391,378.762,257.81,375.498z"/>
					<path fill="#41B649" d="M433.566,335.49c0,0-0.235-1.348-0.471-2.696c-0.304-1.334-0.608-2.668-0.608-2.668l-0.169,0.815
						c-0.033,1.075,0.168,1.53,0.436,2.06C433.001,333.534,433.329,334.139,433.566,335.49z"/>
					<path fill="#FFFFFF" d="M330.089,456.83c1.556,0.07,3.172,0.147,4.659,0.127c1.49-0.053,2.847-0.135,3.878-0.248
						c1.031-0.099,1.739-0.274,1.937-0.457c0.198-0.187-0.115-0.341-1.117-0.557c-2.014-0.198-3.913-0.25-5.743-0.406
						c-1.827-0.184-3.609-0.259-5.372-0.496c-3.529-0.438-7.062-1.061-10.899-2.434c-0.064,0.232,0.494,0.605,1.419,1.046
						c0.935,0.4,2.24,0.858,3.649,1.321c1.402,0.495,2.937,0.844,4.292,1.217C328.149,456.308,329.334,456.627,330.089,456.83z"/>
					<path fill="#41B649" d="M369.23,251.576c0,0-0.554-0.122-1.384-0.306c-0.832-0.174-1.932-0.455-3.055-0.621
						c-1.118-0.189-2.235-0.378-3.073-0.52c-0.837-0.152-1.4-0.212-1.4-0.212s0.469,0.256,0.927,0.553
						c0.458,0.287,0.916,0.575,0.916,0.575c1.783,0.44,2.805,0.632,3.419,0.685c0.609,0.076,0.81,0.002,0.944-0.111
						C366.79,251.396,366.782,251.04,369.23,251.576z"/>
					<path fill="#FFFFFF" d="M360.403,446.685c-0.037-0.239,0.385-0.56,0.362-0.709c-0.025-0.161-0.479-0.089-2.305,0.246
						c0,0-1.361,0.386-2.723,0.773c-0.682,0.21-1.375,0.34-1.893,0.467c-0.519,0.119-0.866,0.198-0.866,0.198
						C353.895,447.484,362.376,447.166,360.403,446.685z"/>
					<path fill="#FFFFFF" d="M378.695,439.864l-1.353-1.03c-2.48,1.089-4.008,2.299-6.717,2.768
						c1.778-0.385,2.734-0.374,3.761-0.539C375.414,440.902,376.572,440.733,378.695,439.864z"/>
					<path fill="#FFFFFF" d="M340,445.543c1.247,0.25,2.364,0.359,3.371,0.446c1.007,0.075,1.906,0.12,2.724,0.043
						c1.636-0.118,2.95-0.349,4.195-0.595c1.244-0.293,2.421-0.565,3.809-0.681c1.391-0.107,2.973-0.209,5.089,0.03
						c5.857-1.115,7.722-2.136,7.823-2.674c0.094-0.565-1.588-0.83-3.004-1.123c-2.183,0.411-2.11,0.813-2.354,1.354
						c-0.123,0.268-0.326,0.566-0.941,0.907c-0.308,0.168-0.718,0.358-1.276,0.54c-0.561,0.164-1.268,0.334-2.162,0.508
						c-2.265,0.22-4.773,0.231-6.814,0.2c-2.046-0.106-3.629-0.367-4.075-0.77c-5.824-0.094-5.847,0.187-5.189,0.667
						C341.851,444.843,343.214,445.418,340,445.543z"/>
					<path fill="#FFFFFF" d="M377.502,436.695c0,0-0.308,0.121-0.771,0.304c-0.471,0.159-1.099,0.371-1.727,0.582
						c-1.255,0.425-2.51,0.851-2.51,0.851l2.824,0.063c0,0,0.553-0.442,1.105-0.883c0.276-0.216,0.548-0.441,0.745-0.623
						C377.369,436.812,377.502,436.695,377.502,436.695z"/>
					<path fill="#FFFFFF" d="M340.231,441.315l-4.417,0.266c0,0,1.972,0.182,3.945,0.364c0.985,0.117,1.979,0.104,2.722,0.149
						c0.743,0.03,1.239,0.05,1.239,0.05s-0.876-0.203-1.752-0.407c-0.435-0.101-0.87-0.202-1.196-0.278
						C340.445,441.388,340.231,441.315,340.231,441.315z"/>
					<path fill="#FFFFFF" d="M350.558,438.379c0,0-0.846,0.082-1.698,0.083c-0.85,0.021-1.701,0.042-1.701,0.042
						c-1.264,0.224-2.324,0.453-2.75,0.633c-0.426,0.194-0.217,0.429,1.068,0.62C349.769,439.504,348.882,438.871,350.558,438.379z"
						/>
					<path fill="#41B649" d="M266.966,409.348c2.612,5.356,6.416,11.227,11.555,16.883c1.293,1.403,2.617,2.849,4.082,4.198
						c0.725,0.683,1.442,1.397,2.205,2.066c0.775,0.659,1.556,1.324,2.343,1.993c0.782,0.682,1.603,1.324,2.448,1.949
						c0.843,0.632,1.691,1.268,2.545,1.908c0.887,0.595,1.78,1.194,2.677,1.796c0.898,0.607,1.812,1.2,2.765,1.739
						c1.598,0.543,3.186,1.165,4.9,1.667c1.698,0.537,3.44,1.127,5.322,1.64c0,0,0.605,0.311,1.512,0.777
						c0.899,0.492,2.148,1.025,3.39,1.595c1.242,0.57,2.493,1.133,3.455,1.487c0.957,0.377,1.595,0.629,1.595,0.629
						c5.244,1.451,11.117,2.514,16.534,2.778c1.352,0.082,2.679,0.062,3.952,0.07c0.637-0.004,1.262-0.002,1.873-0.023
						c0.611-0.046,1.208-0.091,1.791-0.135c1.162-0.099,2.259-0.215,3.274-0.352c1.015-0.18,1.948-0.386,2.784-0.602
						c1.957,0.178,1.978,0.471,3.949,0.548c0.962-0.195,2.17-0.348,3.502-0.487c1.327-0.189,2.775-0.395,4.223-0.601
						c1.45-0.184,2.873-0.543,4.176-0.838c0.649-0.16,1.267-0.316,1.831-0.499c0.561-0.2,1.072-0.405,1.516-0.616
						c2.424-0.305,3.697-0.294,4.732-0.266c1.042,0.05,1.864,0.194,3.41,0.131c5.061-1.952,10.907-3.924,16.535-6.544
						c5.623-2.592,11.001-5.834,14.962-9.571c1.296-0.368,2.697-1.224,4.124-2.353c1.37-1.197,2.84-2.582,4.202-4.11
						c1.373-1.511,2.765-3.042,4.065-4.472c0.664-0.701,1.338-1.345,2.013-1.921c0.65-0.597,1.312-1.116,1.99-1.529
						c4.202-4.278,7.812-9.428,10.217-13.918c2.358-4.53,3.601-8.319,3.623-9.899c0.176,0.076,0.06,1.097,0.198,1.563
						c0.128,0.459,0.648,0.429,1.885-1.764c0.294-0.947,1.003-2.813,0.891-2.86c0.211-0.446,1.258-2.709,2.315-5.244
						c0.476-1.286,0.954-2.64,1.334-3.859c0.387-1.217,0.574-2.33,0.645-3.079c0.116-1.231,0.044-1.629-0.216-1.41
						c-1.181,2.705-1.878,3.076-2.267,2.023c-0.194-0.526-0.313-1.408-0.378-2.533c-0.046-1.124-0.103-2.495-0.166-4.021
						c-0.018-0.755-0.036-1.548-0.055-2.367c-0.027-0.817-0.093-1.663-0.134-2.513c-0.043-0.846-0.087-1.705-0.131-2.564
						c-0.079-0.856-0.159-1.711-0.238-2.555c-0.081-0.835-0.16-1.658-0.238-2.456c-0.117-0.794-0.231-1.563-0.34-2.297
						c-0.234-1.459-0.41-2.755-0.693-3.807c-0.112-1.257-0.227-2.548-0.339-3.809c-0.403,4.591-0.894,9.571-1.819,15.437
						c0.459-0.847,0.261,0.948,0.123,2.419c-0.062,0.736-0.128,1.387-0.098,1.579c0.027,0.191,0.24-0.057,0.575-1.158
						c0.161-0.902,0.2-1.81,0.358-2.706c0,0,0.115-0.387,0.288-0.968c0.165-0.583,0.339-1.368,0.535-2.153
						c0.191-0.788,0.383-1.575,0.526-2.166c0.153-0.591,0.218-0.991,0.218-0.991c-0.009,1.379-0.225,3.206-0.453,5.233
						c-0.174,1.005-0.357,2.059-0.543,3.131c-0.095,0.536-0.191,1.076-0.287,1.616c-0.121,0.535-0.242,1.071-0.362,1.604
						c-0.233,1.067-0.462,2.119-0.682,3.126c-0.257,0.998-0.49,1.954-0.684,2.84c-0.354,1.783-0.718,3.235-0.711,4.207
						c-2.492,6.01-4.266,7.301-6.461,10.289c-2.214,4.476-5.286,9.006-8.42,13.142c-3.154,4.131-6.344,7.907-8.864,11.118
						c-0.818,0.942-1.656,1.688-2.383,2.388c-0.744,0.683-1.388,1.314-2.034,1.804c-1.277,0.998-2.311,1.711-3.193,2.246
						c-1.822,1-3.016,1.316-4.328,1.816c-0.831,0.741-1.891,1.557-3.022,2.395c-1.136,0.83-2.407,1.587-3.567,2.359
						c-1.163,0.768-2.317,1.387-3.201,1.998c-0.888,0.606-1.56,1.111-1.859,1.487c-3.751,1.573-6.456,2.136-8.626,2.419
						c-2.197,0.221-3.842,0.244-5.688,0.253c-2.959,0.731-4.413,1.095-5.604,1.64c-1.186,0.558-2.156,1.083-4.2,1.875
						c-6.02,1.078-5.491,0.283-5.177-0.331c0.307-0.676,0.425-1.062-6.325-0.344c-1.278,0.02-2.646,0.192-3.996,0.297
						c-1.35,0.1-2.672,0.257-3.841,0.441c-2.335,0.247-4.061,0.627-4.066,0.991c-1.509-0.233-3.11-0.487-4.746-0.627
						c-1.628-0.205-3.281-0.414-4.881-0.616c-1.587-0.283-3.126-0.537-4.517-0.853c-1.378-0.373-2.615-0.765-3.615-1.21
						c-4.818-0.043-9.978-2-14.964-4.558c-5.022-2.558-9.859-5.672-15.013-8.053c-5.023-3.672-9.337-7.145-13.405-10.833
						c-4.052-3.696-7.863-7.62-11.464-12.414c-1.643-0.6-2.713-0.285-3.068,1.073c-0.172,0.675-0.19,1.627,0.03,2.825
						C265.843,406.164,266.292,407.616,266.966,409.348z"/>
				</g>
			</g>
		</g>
	</g>
</g>
<g>
	<circle fill="#FFD942" stroke="#FFAD0A" stroke-miterlimit="10" cx="344.397" cy="560.672" r="47.059"/>
	<line fill="none" stroke="#FFAD0A" stroke-miterlimit="10" x1="344.482" y1="505.884" x2="344.482" y2="478.305"/>
	<line fill="none" stroke="#FFAD0A" stroke-miterlimit="10" x1="397.961" y1="560.723" x2="426.424" y2="560.723"/>
	<line fill="none" stroke="#FFAD0A" stroke-miterlimit="10" x1="345.34" y1="613.676" x2="345.34" y2="641.998"/>
	<line fill="none" stroke="#FFAD0A" stroke-miterlimit="10" x1="292.911" y1="560.914" x2="264.065" y2="560.913"/>
	<line fill="none" stroke="#FFAD0A" stroke-miterlimit="10" x1="384.371" y1="519.946" x2="398.433" y2="505.884"/>
	<line fill="none" stroke="#FFAD0A" stroke-miterlimit="10" x1="384.171" y1="599.886" x2="397.961" y2="613.677"/>
	<line fill="none" stroke="#FFAD0A" stroke-miterlimit="10" x1="305.645" y1="599.886" x2="291.584" y2="613.947"/>
	<line fill="none" stroke="#FFAD0A" stroke-miterlimit="10" x1="305.645" y1="521.629" x2="291.316" y2="507.3"/>
	<line fill="none" stroke="#FFAD0A" stroke-miterlimit="10" x1="396.428" y1="537.56" x2="414.72" y2="529.757"/>
	<line fill="none" stroke="#FFAD0A" stroke-miterlimit="10" x1="366.429" y1="611.658" x2="374.081" y2="629.596"/>
	<line fill="none" stroke="#FFAD0A" stroke-miterlimit="10" x1="293.568" y1="582.372" x2="275.278" y2="590.174"/>
	<line fill="none" stroke="#FFAD0A" stroke-miterlimit="10" x1="322.754" y1="509.761" x2="314.803" y2="491.122"/>
	<line fill="none" stroke="#FFAD0A" stroke-miterlimit="10" x1="396.561" y1="582.856" x2="414.674" y2="591.065"/>
	<line fill="none" stroke="#FFAD0A" stroke-miterlimit="10" x1="321.672" y1="610.823" x2="313.622" y2="628.587"/>
	<line fill="none" stroke="#FFAD0A" stroke-miterlimit="10" x1="294.015" y1="537.329" x2="275.904" y2="529.121"/>
	<line fill="none" stroke="#FFAD0A" stroke-miterlimit="10" x1="367.258" y1="509.767" x2="375.623" y2="491.309"/>
</g>
<path fill="#F5EECE" stroke="#938E4D" stroke-miterlimit="10" d="M330.317,114.613c-3.717,0-7.328,0.444-10.796,1.259
	c17.477,6.871,29.855,23.884,29.855,43.8c0,22.273-15.479,40.918-36.263,45.8c5.33,2.096,11.13,3.259,17.204,3.259
	c25.99,0,47.059-21.069,47.059-47.059S356.307,114.613,330.317,114.613z"/>
<polygon fill="#E8E18E" points="267.92,104.819 259.637,100.02 250.988,104.123 252.993,94.763 246.418,87.805 255.94,86.819 
	260.525,78.416 264.405,87.167 273.814,88.931 266.69,95.326 "/>
<polygon fill="#E8E18E" points="465.933,157.669 467.11,160.052 469.74,160.435 467.837,162.29 468.286,164.91 465.933,163.673 
	463.58,164.91 464.03,162.29 462.126,160.435 464.757,160.052 "/>
<polygon fill="#E8E18E" points="511.933,174.819 505.38,173.544 500.615,178.22 499.802,171.594 493.882,168.507 499.933,165.686 
	501.04,159.103 505.592,163.986 512.195,163.003 508.958,168.842 "/>
<polygon fill="#E8E18E" points="174.72,131.376 176.907,135.808 181.798,136.519 178.259,139.969 179.094,144.84 174.72,142.54 
	170.346,144.84 171.181,139.969 167.642,136.519 172.533,135.808 "/>
<polygon fill="#E8E18E" points="240.933,146.696 243.732,152.368 249.991,153.277 245.462,157.692 246.531,163.926 240.933,160.983 
	235.335,163.926 236.404,157.692 231.875,153.277 238.134,152.368 "/>
<polygon fill="#E8E18E" points="344.397,54.35 346.886,59.393 352.451,60.202 348.424,64.127 349.375,69.67 344.397,67.053 
	339.42,69.67 340.37,64.127 336.343,60.202 341.909,59.393 "/>
<polygon fill="#E8E18E" points="298.615,54.35 300.866,58.912 305.9,59.643 302.257,63.194 303.117,68.207 298.615,65.84 
	294.112,68.207 294.972,63.194 291.33,59.643 296.363,58.912 "/>
<polygon fill="#E8E18E" points="377.376,73.819 378.257,75.605 380.229,75.892 378.802,77.282 379.139,79.246 377.376,78.319 
	375.612,79.246 375.949,77.282 374.522,75.892 376.494,75.605 "/>
<polygon fill="#E8E18E" points="462.126,95.108 463.008,96.895 464.979,97.181 463.553,98.572 463.889,100.535 462.126,99.608 
	460.363,100.535 460.699,98.572 459.273,97.181 461.244,96.895 "/>
<polygon fill="#E8E18E" points="528.933,144.819 528.338,145.113 528.242,145.77 527.779,145.294 527.124,145.407 527.433,144.819 
	527.124,144.231 527.779,144.343 528.242,143.868 528.338,144.525 "/>
<polygon fill="#E8E18E" points="547.933,164.819 547.338,165.113 547.242,165.77 546.779,165.294 546.124,165.407 546.433,164.819 
	546.124,164.231 546.779,164.343 547.242,163.868 547.338,164.525 "/>
<polygon fill="#E8E18E" points="421.798,143.868 419.726,139.67 415.094,138.997 418.446,135.73 417.655,131.116 421.798,133.294 
	425.941,131.116 425.15,135.73 428.502,138.997 423.87,139.67 "/>
<polygon fill="#E8E18E" points="421.798,62.868 419.726,58.67 415.094,57.997 418.446,54.73 417.655,50.116 421.798,52.294 
	425.941,50.116 425.15,54.73 428.502,57.997 423.87,58.67 "/>
<polygon fill="#E8E18E" points="186.933,118.416 185.815,116.151 183.316,115.788 185.125,114.025 184.698,111.536 186.933,112.711 
	189.169,111.536 188.742,114.025 190.55,115.788 188.051,116.151 "/>
<polygon fill="#E8E18E" points="291.316,157.669 292.923,156.875 293.181,155.101 294.433,156.385 296.2,156.082 295.365,157.669 
	296.2,159.256 294.433,158.952 293.181,160.236 292.923,158.462 "/>
<polygon fill="#E8E18E" points="180.316,167.669 181.923,166.875 182.181,165.101 183.433,166.385 185.2,166.082 184.365,167.669 
	185.2,169.256 183.433,168.952 182.181,170.236 181.923,168.462 "/>
<polygon fill="#E8E18E" points="129.316,147.669 130.923,146.875 131.181,145.101 132.433,146.385 134.2,146.082 133.365,147.669 
	134.2,149.256 132.433,148.952 131.181,150.236 130.923,148.462 "/>
<polygon fill="#E8E18E" points="219.316,86.669 220.923,85.875 221.181,84.101 222.433,85.385 224.2,85.082 223.365,86.669 
	224.2,88.256 222.433,87.952 221.181,89.236 220.923,87.462 "/>
<polygon fill="#E8E18E" points="302.316,129.669 303.923,128.875 304.181,127.101 305.433,128.385 307.2,128.082 306.365,129.669 
	307.2,131.256 305.433,130.952 304.181,132.236 303.923,130.462 "/>
<polygon fill="#E8E18E" points="423.316,189.669 424.923,188.875 425.181,187.101 426.433,188.385 428.2,188.082 427.365,189.669 
	428.2,191.256 426.433,190.952 425.181,192.236 424.923,190.462 "/>
<polygon fill="#E8E18E" points="424.316,189.669 425.923,188.875 426.181,187.101 427.433,188.385 429.2,188.082 428.365,189.669 
	429.2,191.256 427.433,190.952 426.181,192.236 425.923,190.462 "/>
<polygon fill="#E8E18E" points="525.316,119.669 526.923,118.875 527.181,117.101 528.433,118.385 530.2,118.082 529.365,119.669 
	530.2,121.256 528.433,120.952 527.181,122.236 526.923,120.462 "/>
</svg>
