<?xml version="1.0" encoding="utf-8"?>
<!-- Generator: Adobe Illustrator 17.0.0, SVG Export Plug-In . SVG Version: 6.00 Build 0)  -->
<!DOCTYPE svg PUBLIC "-//W3C//DTD SVG 1.1//EN" "http://www.w3.org/Graphics/SVG/1.1/DTD/svg11.dtd">
<svg version="1.1" id="Layer_1" xmlns="http://www.w3.org/2000/svg" xmlns:xlink="http://www.w3.org/1999/xlink" x="0px" y="0px"
	 width="189.832px" height="201.514px" viewBox="0 0 189.832 201.514" enable-background="new 0 0 189.832 201.514"
	 xml:space="preserve">
<circle fill="#FFD942" stroke="#FFAD0A" stroke-miterlimit="10" cx="95.832" cy="101.367" r="47.059"/>
<line fill="none" stroke="#FFAD0A" stroke-miterlimit="10" x1="95.916" y1="46.579" x2="95.916" y2="19"/>
<line fill="none" stroke="#FFAD0A" stroke-miterlimit="10" x1="149.395" y1="101.418" x2="177.858" y2="101.418"/>
<line fill="none" stroke="#FFAD0A" stroke-miterlimit="10" x1="96.774" y1="154.371" x2="96.774" y2="182.693"/>
<line fill="none" stroke="#FFAD0A" stroke-miterlimit="10" x1="44.345" y1="101.608" x2="15.499" y2="101.608"/>
<line fill="none" stroke="#FFAD0A" stroke-miterlimit="10" x1="135.806" y1="60.641" x2="149.868" y2="46.579"/>
<line fill="none" stroke="#FFAD0A" stroke-miterlimit="10" x1="135.605" y1="140.581" x2="149.396" y2="154.371"/>
<line fill="none" stroke="#FFAD0A" stroke-miterlimit="10" x1="57.079" y1="140.581" x2="43.019" y2="154.641"/>
<line fill="none" stroke="#FFAD0A" stroke-miterlimit="10" x1="57.079" y1="62.324" x2="42.75" y2="47.995"/>
<line fill="none" stroke="#FFAD0A" stroke-miterlimit="10" x1="147.862" y1="78.255" x2="166.154" y2="70.452"/>
<line fill="none" stroke="#FFAD0A" stroke-miterlimit="10" x1="117.863" y1="152.353" x2="125.515" y2="170.291"/>
<line fill="none" stroke="#FFAD0A" stroke-miterlimit="10" x1="45.002" y1="123.067" x2="26.713" y2="130.869"/>
<line fill="none" stroke="#FFAD0A" stroke-miterlimit="10" x1="74.188" y1="50.456" x2="66.237" y2="31.816"/>
<line fill="none" stroke="#FFAD0A" stroke-miterlimit="10" x1="147.995" y1="123.551" x2="166.109" y2="131.76"/>
<line fill="none" stroke="#FFAD0A" stroke-miterlimit="10" x1="73.106" y1="151.518" x2="65.057" y2="169.282"/>
<line fill="none" stroke="#FFAD0A" stroke-miterlimit="10" x1="45.45" y1="78.024" x2="27.338" y2="69.816"/>
<line fill="none" stroke="#FFAD0A" stroke-miterlimit="10" x1="118.693" y1="50.462" x2="127.057" y2="32.004"/>
</svg>
