<?xml version="1.0" encoding="utf-8"?>
<!-- Generator: Adobe Illustrator 17.0.0, SVG Export Plug-In . SVG Version: 6.00 Build 0)  -->
<!DOCTYPE svg PUBLIC "-//W3C//DTD SVG 1.1//EN" "http://www.w3.org/Graphics/SVG/1.1/DTD/svg11.dtd">
<svg version="1.1" id="Layer_1" xmlns="http://www.w3.org/2000/svg" xmlns:xlink="http://www.w3.org/1999/xlink" x="0px" y="0px"
	 width="185px" height="187px" viewBox="0 0 185 187" enable-background="new 0 0 185 187" xml:space="preserve">
<pattern  x="-1662" width="50.738" height="58.496" patternUnits="userSpaceOnUse" id="Waves_Color" viewBox="61.035 -64.538 50.738 58.496" overflow="visible">
	<g>
		<polygon fill="none" points="61.035,-64.538 111.772,-64.538 111.772,-6.042 61.035,-6.042 		"/>
		<g>
			<path fill="none" stroke="#FFFFFF" stroke-width="1.25" d="M172.834-41.616c-1.969,2.344-5.965,4.594-17.289-5.529
				c-4.955-4.43-9.061-4.787-11.453-3.283c-1.492,0.938-2.15,2.906-1.822,3.938c0.547,1.717,2.109,2.297,3.328,1.453
				c-1.123-0.656-0.652-2.244,1.021-1.922c2.439,0.469,2.209,3.719,0.846,5.344c-1.969,2.344-5.965,4.594-17.289-5.529
				c-4.958-4.43-9.063-4.787-11.456-3.283c-1.493,0.938-2.149,2.906-1.82,3.938c0.547,1.717,2.109,2.297,3.327,1.453
				c-1.125-0.656-0.651-2.244,1.023-1.922c2.438,0.469,2.208,3.719,0.845,5.344c-1.97,2.344-5.966,4.594-17.289-5.529"/>
			<path fill="none" stroke="#FFFFFF" stroke-width="1.25" d="M164.002-27.646c-4.957-4.432-9.061-4.787-11.455-3.285
				c-1.492,0.938-2.148,2.906-1.82,3.938c0.547,1.719,2.109,2.297,3.328,1.453c-1.125-0.656-0.652-2.244,1.023-1.922
				c2.438,0.469,2.207,3.721,0.844,5.344c-1.969,2.344-5.965,4.594-17.289-5.527c-4.956-4.432-9.061-4.787-11.454-3.285
				c-1.494,0.938-2.149,2.906-1.821,3.938c0.546,1.719,2.109,2.297,3.329,1.453c-1.125-0.656-0.653-2.244,1.021-1.922
				c2.438,0.469,2.208,3.721,0.846,5.344c-1.97,2.344-5.967,4.594-17.291-5.527c-4.958-4.432-9.062-4.787-11.455-3.285"/>
			<path fill="none" stroke="#FFFFFF" stroke-width="1.25" d="M172.461-8.148c-4.959-4.432-9.062-4.787-11.455-3.285
				c-1.492,0.938-2.148,2.906-1.82,3.937c0.547,1.717,2.109,2.297,3.328,1.453c-1.125-0.656-0.652-2.244,1.021-1.92
				c2.438,0.469,2.209,3.717,0.846,5.342c-1.971,2.344-5.967,4.594-17.289-5.527c-4.957-4.432-9.062-4.787-11.455-3.285
				c-1.491,0.938-2.149,2.906-1.82,3.937c0.546,1.717,2.109,2.297,3.328,1.453c-1.125-0.656-0.654-2.244,1.021-1.92
				c2.438,0.469,2.209,3.717,0.846,5.342c-1.971,2.344-5.966,4.594-17.29-5.527c-4.959-4.432-9.062-4.787-11.456-3.285
				c-1.493,0.938-2.148,2.906-1.82,3.937c0.547,1.717,2.109,2.297,3.327,1.453c-1.125-0.656-0.651-2.244,1.023-1.92
				c2.438,0.469,2.208,3.717,0.843,5.342"/>
		</g>
		<g>
			<polygon fill="#A5A5A5" points="61.035,-6.042 61.035,-64.538 111.772,-64.538 111.772,-6.042 			"/>
			<path fill="none" stroke="#FFFFFF" stroke-width="1.25" d="M122.096-41.616c-1.969,2.344-5.965,4.594-17.289-5.529
				c-4.955-4.43-9.061-4.787-11.453-3.283c-1.492,0.938-2.15,2.906-1.822,3.938c0.547,1.717,2.109,2.297,3.328,1.453
				c-1.123-0.656-0.652-2.244,1.021-1.922c2.439,0.469,2.209,3.719,0.846,5.344c-1.969,2.344-5.965,4.594-17.289-5.529
				c-4.958-4.43-9.062-4.787-11.456-3.283c-1.493,0.938-2.149,2.906-1.82,3.938c0.547,1.717,2.109,2.297,3.327,1.453
				c-1.125-0.656-0.651-2.244,1.023-1.922c2.438,0.469,2.208,3.719,0.845,5.344c-1.97,2.344-5.966,4.594-17.289-5.529"/>
			<path fill="none" stroke="#FFFFFF" stroke-width="1.25" d="M113.264-27.646c-4.957-4.432-9.061-4.787-11.455-3.285
				c-1.492,0.938-2.148,2.906-1.82,3.938c0.547,1.719,2.109,2.297,3.328,1.453c-1.125-0.656-0.652-2.244,1.023-1.922
				c2.438,0.469,2.207,3.721,0.844,5.344c-1.969,2.344-5.965,4.594-17.289-5.527c-4.956-4.432-9.061-4.787-11.454-3.285
				c-1.494,0.938-2.149,2.906-1.821,3.938c0.546,1.719,2.109,2.297,3.329,1.453c-1.125-0.656-0.653-2.244,1.021-1.922
				c2.438,0.469,2.208,3.721,0.846,5.344c-1.97,2.344-5.967,4.594-17.291-5.527c-4.958-4.432-9.062-4.787-11.455-3.285"/>
			<path fill="none" stroke="#FFFFFF" stroke-width="1.25" d="M121.723-8.148c-4.959-4.432-9.062-4.787-11.455-3.285
				c-1.492,0.938-2.148,2.906-1.82,3.937c0.547,1.717,2.109,2.297,3.328,1.453c-1.125-0.656-0.652-2.244,1.021-1.92
				c2.438,0.469,2.209,3.717,0.846,5.342c-1.971,2.344-5.967,4.594-17.289-5.527c-4.957-4.432-9.062-4.787-11.455-3.285
				c-1.491,0.938-2.149,2.906-1.82,3.937c0.546,1.717,2.109,2.297,3.328,1.453c-1.125-0.656-0.654-2.244,1.021-1.92
				c2.438,0.469,2.209,3.717,0.846,5.342c-1.971,2.344-5.966,4.594-17.29-5.527c-4.959-4.432-9.062-4.787-11.456-3.285
				c-1.493,0.938-2.148,2.906-1.82,3.937c0.547,1.717,2.109,2.297,3.327,1.453c-1.125-0.656-0.651-2.244,1.023-1.92
				c2.437,0.469,2.208,3.717,0.843,5.342"/>
		</g>
		<g>
			<path fill="none" stroke="#FFFFFF" stroke-width="1.25" d="M71.358-41.616c-1.969,2.344-5.965,4.594-17.289-5.529
				c-4.955-4.43-9.061-4.787-11.453-3.283c-1.492,0.938-2.15,2.906-1.822,3.938c0.547,1.717,2.109,2.297,3.328,1.453
				c-1.123-0.656-0.652-2.244,1.021-1.922c2.439,0.469,2.209,3.719,0.846,5.344c-1.969,2.344-5.965,4.594-17.289-5.529
				c-4.958-4.43-9.062-4.787-11.456-3.283c-1.493,0.938-2.149,2.906-1.82,3.938c0.547,1.717,2.109,2.297,3.327,1.453
				c-1.125-0.656-0.651-2.244,1.023-1.922c2.438,0.469,2.208,3.719,0.845,5.344c-1.97,2.344-5.966,4.594-17.289-5.529"/>
			<path fill="none" stroke="#FFFFFF" stroke-width="1.25" d="M62.526-27.646c-4.957-4.432-9.061-4.787-11.455-3.285
				c-1.492,0.938-2.148,2.906-1.82,3.938c0.547,1.719,2.109,2.297,3.328,1.453c-1.125-0.656-0.652-2.244,1.023-1.922
				c2.438,0.469,2.207,3.721,0.844,5.344c-1.969,2.344-5.965,4.594-17.289-5.527c-4.956-4.432-9.06-4.787-11.454-3.285
				c-1.494,0.938-2.149,2.906-1.821,3.938c0.546,1.719,2.109,2.297,3.329,1.453c-1.125-0.656-0.653-2.244,1.021-1.922
				c2.438,0.469,2.208,3.721,0.846,5.344c-1.97,2.344-5.967,4.594-17.291-5.527c-4.958-4.432-9.062-4.787-11.455-3.285"/>
			<path fill="none" stroke="#FFFFFF" stroke-width="1.25" d="M70.985-8.148c-4.959-4.432-9.062-4.787-11.455-3.285
				c-1.492,0.938-2.148,2.906-1.82,3.937c0.547,1.717,2.109,2.297,3.328,1.453c-1.125-0.656-0.652-2.244,1.021-1.92
				c2.438,0.469,2.209,3.717,0.846,5.342c-1.971,2.344-5.967,4.594-17.289-5.527c-4.957-4.432-9.062-4.787-11.455-3.285
				c-1.491,0.938-2.149,2.906-1.82,3.937c0.546,1.717,2.109,2.297,3.328,1.453c-1.125-0.656-0.654-2.244,1.021-1.92
				c2.438,0.469,2.209,3.717,0.846,5.342c-1.971,2.344-5.966,4.594-17.29-5.527c-4.959-4.432-9.063-4.787-11.456-3.285
				c-1.493,0.938-2.148,2.906-1.82,3.937c0.547,1.717,2.109,2.297,3.327,1.453c-1.125-0.656-0.651-2.244,1.023-1.92
				c2.438,0.469,2.208,3.717,0.843,5.342"/>
		</g>
		<g>
			<path fill="none" stroke="#FFFFFF" stroke-width="1.25" d="M172.461-66.644c-4.959-4.432-9.062-4.787-11.455-3.285
				c-1.492,0.938-2.148,2.906-1.82,3.938c0.547,1.717,2.109,2.297,3.328,1.453c-1.125-0.656-0.652-2.244,1.021-1.92
				c2.438,0.469,2.209,3.717,0.846,5.342c-1.971,2.344-5.967,4.594-17.289-5.527c-4.957-4.432-9.062-4.787-11.455-3.285
				c-1.491,0.938-2.149,2.906-1.82,3.938c0.546,1.717,2.109,2.297,3.328,1.453c-1.125-0.656-0.654-2.244,1.021-1.92
				c2.438,0.469,2.209,3.717,0.846,5.342c-1.971,2.344-5.966,4.594-17.29-5.527c-4.959-4.432-9.062-4.787-11.456-3.285
				c-1.493,0.938-2.148,2.906-1.82,3.938c0.547,1.717,2.109,2.297,3.327,1.453c-1.125-0.656-0.651-2.244,1.023-1.92
				c2.438,0.469,2.208,3.717,0.843,5.342"/>
		</g>
		<g>
			<path fill="none" stroke="#FFFFFF" stroke-width="1.25" d="M121.723-66.644c-4.959-4.432-9.062-4.787-11.455-3.285
				c-1.492,0.938-2.148,2.906-1.82,3.938c0.547,1.717,2.109,2.297,3.328,1.453c-1.125-0.656-0.652-2.244,1.021-1.92
				c2.438,0.469,2.209,3.717,0.846,5.342c-1.971,2.344-5.967,4.594-17.289-5.527c-4.957-4.432-9.062-4.787-11.455-3.285
				c-1.491,0.938-2.149,2.906-1.82,3.938c0.546,1.717,2.109,2.297,3.328,1.453c-1.125-0.656-0.654-2.244,1.021-1.92
				c2.438,0.469,2.209,3.717,0.846,5.342c-1.971,2.344-5.966,4.594-17.29-5.527c-4.959-4.432-9.062-4.787-11.456-3.285
				c-1.493,0.938-2.148,2.906-1.82,3.938c0.547,1.717,2.109,2.297,3.327,1.453c-1.125-0.656-0.651-2.244,1.023-1.92
				c2.437,0.469,2.208,3.717,0.843,5.342"/>
		</g>
		<g>
			<path fill="none" stroke="#FFFFFF" stroke-width="1.25" d="M70.985-66.644c-4.959-4.432-9.062-4.787-11.455-3.285
				c-1.492,0.938-2.148,2.906-1.82,3.938c0.547,1.717,2.109,2.297,3.328,1.453c-1.125-0.656-0.652-2.244,1.021-1.92
				c2.438,0.469,2.209,3.717,0.846,5.342c-1.971,2.344-5.967,4.594-17.289-5.527c-4.957-4.432-9.062-4.787-11.455-3.285
				c-1.491,0.938-2.149,2.906-1.82,3.938c0.546,1.717,2.109,2.297,3.328,1.453c-1.125-0.656-0.654-2.244,1.021-1.92
				c2.438,0.469,2.209,3.717,0.846,5.342c-1.971,2.344-5.966,4.594-17.29-5.527c-4.959-4.432-9.063-4.787-11.456-3.285
				c-1.493,0.938-2.148,2.906-1.82,3.938c0.547,1.717,2.109,2.297,3.327,1.453c-1.125-0.656-0.651-2.244,1.023-1.92
				c2.438,0.469,2.208,3.717,0.843,5.342"/>
		</g>
	</g>
</pattern>
<g>
	<path fill-rule="evenodd" clip-rule="evenodd" fill="#474747" d="M178.704,36.441c-3.744,1.161-11.611,0.403-11.611-4.622
		c-35.678,0.881-55.966-13.626-75.92-28.47c-21.031,13.766-40.55,29.045-75.921,28.47c0,5.927-6.916,8.105-12.773,5.009
		c-5.248-2.774,10.932,24.838,12.773,30.58c10.937,49.167,35.341,84.866,71.176,109.135c1.127,0,2.253,5.806,3.378,5.806
		c1.246,0,2.493-5.806,3.739-5.806c40.153-23.907,63.667-64.449,73.549-118.627C167.092,54.241,182.214,35.353,178.704,36.441z"/>
	<path fill-rule="evenodd" clip-rule="evenodd" fill="#404040" d="M163.054,34.065c0,4.763,7.458,5.482,11.007,4.382
		c1.631-0.506-1.61,3.908-2.928,5.923c-0.727,1.111-5.28-1.957-5.397-1.591c-0.189,0.594,4.513,3.208,4.32,3.501
		c-0.693,1.047-1.87,2.623-2.504,3.655c-0.391,0.635-6.044-2.883-6.211-2.619c-0.199,0.315,5.308,4.045,5.12,4.349
		c-0.687,1.114-2.083,3.661-2.48,4.583c-0.561,1.306-7.402-3.861-7.685-2.549c-0.254,1.177,6.623,5.826,6.623,5.98
		c-0.046,0.246-0.036,0.266-0.08,0.511c-9.447,50.991-31.626,88.517-69.507,111.072c-1.181,0-2.363,5.504-3.545,5.504
		c-1.066,0-2.134-5.504-3.202-5.504c-33.97-23.007-57.106-56.85-67.473-103.459c-0.982-1.817,4.339-7.803,3.674-10.559
		c-0.389-1.613-4.521,6.848-5.512,5.036c-0.998-1.823-1.219-2.727-2.327-4.847c-0.404-0.774,4.322-6.455,3.752-7.125
		c-0.284-0.334-4.34,6.71-5.574,4.236c-0.38-0.762-1.147-2.006-1.759-3.332c-0.244-0.53,4.934-5.179,4.674-5.756
		c0,0-4.799,4.709-5.702,2.999c-2.403-4.55-4.492-10.252-3.336-9.641c5.553,2.935,12.109,0.87,12.109-4.748
		C52.641,34.61,71.145,20.126,91.082,7.076C109.998,21.148,129.231,34.9,163.054,34.065z"/>
	<path fill-rule="evenodd" clip-rule="evenodd" fill="#606060" d="M159.592,36.829c0,4.536,7.102,5.22,10.481,4.172
		c1.553-0.482-1.533,3.721-2.788,5.64c-0.692,1.058-5.028-1.863-5.139-1.515c-0.18,0.566,4.297,3.055,4.114,3.334
		c-0.66,0.997-1.78,2.498-2.385,3.48c-0.372,0.605-5.755-2.746-5.914-2.494c-0.19,0.3,5.054,3.852,4.875,4.141
		c-0.654,1.061-1.984,3.486-2.361,4.364c-0.534,1.243-7.049-3.676-7.318-2.427c-0.242,1.121,6.307,5.547,6.307,5.695
		c-0.043,0.234-0.034,0.253-0.076,0.486c-8.995,48.556-30.115,84.289-66.187,105.766c-1.125,0-2.25,5.241-3.376,5.241
		c-1.015,0-2.032-5.241-3.049-5.241c-32.347-21.908-54.377-54.134-64.25-98.517c-0.935-1.73,4.132-7.43,3.499-10.054
		c-0.37-1.536-4.305,6.521-5.248,4.796c-0.95-1.736-1.161-2.597-2.216-4.615c-0.385-0.737,4.116-6.146,3.573-6.785
		c-0.27-0.318-4.133,6.39-5.308,4.033c-0.362-0.725-1.092-1.91-1.675-3.173c-0.232-0.505,4.698-4.932,4.451-5.481
		c0,0-4.57,4.484-5.43,2.855c-2.288-4.332-4.277-9.762-3.177-9.18c5.288,2.795,11.531,0.828,11.531-4.522
		c31.929,0.519,49.549-13.273,68.534-25.7C109.071,24.529,127.385,37.624,159.592,36.829z"/>
	<path fill-rule="evenodd" clip-rule="evenodd" fill="url(#Waves_Color)" d="M163.054,34.065c0,4.763,7.458,5.482,11.007,4.382
		c1.631-0.506-1.61,3.908-2.928,5.923c-0.727,1.111-5.28-1.957-5.397-1.591c-0.189,0.594,4.513,3.208,4.32,3.501
		c-0.693,1.047-1.87,2.623-2.504,3.655c-0.391,0.635-6.044-2.883-6.211-2.619c-0.199,0.315,5.308,4.045,5.12,4.349
		c-0.687,1.114-2.083,3.661-2.48,4.583c-0.561,1.306-7.402-3.861-7.685-2.549c-0.254,1.177,6.623,5.826,6.623,5.98
		c-0.046,0.246-0.036,0.266-0.08,0.511c-9.447,50.991-31.626,88.517-69.507,111.072c-1.181,0-2.363,5.504-3.545,5.504
		c-1.066,0-2.134-5.504-3.202-5.504c-33.97-23.007-57.106-56.85-67.473-103.459c-0.982-1.817,4.339-7.803,3.674-10.559
		c-0.389-1.613-4.521,6.848-5.512,5.036c-0.998-1.823-1.219-2.727-2.327-4.847c-0.404-0.774,4.322-6.455,3.752-7.125
		c-0.284-0.334-4.34,6.71-5.574,4.236c-0.38-0.762-1.147-2.006-1.759-3.332c-0.244-0.53,4.934-5.179,4.674-5.756
		c0,0-4.799,4.709-5.702,2.999c-2.403-4.55-4.492-10.252-3.336-9.641c5.553,2.935,12.109,0.87,12.109-4.748
		C52.641,34.61,71.145,20.126,91.082,7.076C109.998,21.148,129.231,34.9,163.054,34.065z"/>
	<path fill-rule="evenodd" clip-rule="evenodd" fill="#575757" d="M173.381,40.987c0,0-1.815,2.089-3.144,2.421
		c-1.33,0.332-7.197-2.749-7.197-2.749s-0.684-0.301-0.422,0.318c0.262,0.62,4.969,4.794,4.875,5.412
		c-0.095,0.618-0.238,1.449-0.95,1.663c-0.683,0.205-7.842-2.834-8.291-2.939c-0.333-0.077-0.503-0.489-0.076,0.271
		c0.428,0.76,4.94,5.229,5.337,6.184c0.511,1.23-0.439,2.138-1.057,2.233c-0.618,0.095-8.346-2.546-8.916-2.546
		s-0.846,0.371-0.228,1.274c0.618,0.903,7.173,5.987,7.695,7.839c0.522,1.853,0.409,3.118,0.906,4.564
		c0.409,1.189,4.488-11.797,5.771-13.507c1.283-1.71,4.703-7.506,5.416-8.504C173.814,41.924,174.712,40.416,173.381,40.987z"/>
	<path fill-rule="evenodd" clip-rule="evenodd" fill="#575757" d="M20.502,74.751c0,0-0.344-4.228,0.048-7.459
		c0.336-2.774,4.229-7.702,4.419-10.781c0.096-1.548,0.492-1.823-0.459-1.538c-0.951,0.285-6.288,5.572-6.954,5.097
		c-0.666-0.475-1.377-1.329-1.092-2.66c0.263-1.227,2.968-6.852,3.254-7.517c0.285-0.665,0.575-0.766-0.281-0.386
		c-0.855,0.38-5.063,4.34-5.538,3.864c-0.475-0.475-1.302-1.314-1.043-2.089c0.451-1.352,5.27-7.628,5.27-7.628
		s0.057-0.347-0.338,0.022c-0.84,0.783-6.227,3.846-6.702,3.561c-0.475-0.285-2.246-3.817-2.626-4.673
		c-0.38-0.855-1.786-5.012-2.612-2.945c-0.405,1.015,6.249,14.228,7.293,17.079s3.758,8.667,4.511,9.977
		C18.257,67.729,19.457,73.278,20.502,74.751z"/>
	<path fill-rule="evenodd" clip-rule="evenodd" fill="#808080" d="M177.109,36.459c-3.677,1.14-11.402,0.396-11.402-4.539
		c-35.034,0.865-54.956-13.38-74.55-27.956C70.505,17.482,51.338,32.485,16.606,31.921c0,5.82-6.791,7.959-12.542,4.919
		c-5.153-2.724,10.735,24.39,12.542,30.028c10.74,48.28,34.704,83.335,69.892,107.166c1.107,0,2.212,5.701,3.317,5.701
		c1.224,0,2.448-5.701,3.671-5.701c39.428-23.475,62.518-63.286,72.222-116.487C165.707,53.938,180.556,35.39,177.109,36.459z
		 M171.132,44.37c-0.727,1.111-8.701-4.237-8.818-3.872c-0.189,0.594,7.934,5.489,7.741,5.781c-0.693,1.047-1.87,2.623-2.504,3.655
		c-0.391,0.635-9.465-5.164-9.632-4.899c-0.199,0.315,8.729,6.326,8.54,6.63c-0.687,1.114-2.083,3.661-2.48,4.583
		c-0.561,1.306-10.823-6.141-11.106-4.829c-0.254,1.177,10.044,8.106,10.044,8.261c-0.046,0.246-0.036,0.266-0.08,0.511
		c-9.447,50.991-31.626,88.517-69.507,111.072c-1.181,0-2.363,5.504-3.545,5.504c-1.066,0-2.134-5.504-3.202-5.504
		c-33.97-23.007-57.106-56.85-67.473-103.459c-0.982-1.817,6.62-10.083,5.955-12.839c-0.389-1.613-6.801,9.128-7.792,7.317
		c-0.998-1.823-1.219-2.727-2.327-4.847c-0.404-0.774,5.463-7.595,4.893-8.265c-0.284-0.334-5.48,7.851-6.714,5.376
		c-0.43-0.863-1.017-1.724-1.759-3.332c-0.244-0.53,7.214-7.46,6.955-8.037c0,0-7.079,6.989-7.982,5.279
		c-2.403-4.55-4.492-10.252-3.336-9.641c5.553,2.935,12.109,0.87,12.109-4.748C52.641,34.61,71.145,20.126,91.082,7.076
		c18.916,14.072,38.149,27.825,71.971,26.989c0,4.763,7.458,5.482,11.007,4.382C175.692,37.941,172.45,42.354,171.132,44.37z"/>
	<g>
		<defs>
			<path id="SVGID_27_" d="M162.774,34.289c0,4.745,7.429,5.461,10.964,4.365c1.625-0.504-1.604,3.893-2.917,5.9
				c-0.724,1.106-5.26-1.949-5.376-1.585c-0.189,0.592,4.495,3.196,4.304,3.487c-0.69,1.043-1.862,2.613-2.495,3.641
				c-0.389,0.633-6.021-2.872-6.187-2.609c-0.199,0.313,5.287,4.03,5.1,4.332c-0.684,1.11-2.075,3.646-2.47,4.565
				c-0.559,1.3-7.374-3.846-7.656-2.539c-0.253,1.173,6.597,5.803,6.597,5.957c-0.045,0.245-0.035,0.265-0.08,0.509
				c-9.41,50.795-31.504,88.176-69.239,110.644c-1.177,0-2.354,5.483-3.532,5.483c-1.061,0-2.125-5.483-3.19-5.483
				c-33.839-22.918-56.885-56.63-67.213-103.06c-0.978-1.81,4.322-7.773,3.66-10.518c-0.387-1.607-4.503,6.821-5.49,5.017
				c-0.994-1.816-1.215-2.716-2.318-4.828c-0.403-0.771,4.306-6.43,3.738-7.098c-0.283-0.333-4.324,6.684-5.553,4.219
				c-0.378-0.759-1.142-1.999-1.752-3.319c-0.243-0.528,4.915-5.159,4.656-5.734c0,0-4.78,4.691-5.68,2.987
				C8.253,44.09,6.172,38.41,7.323,39.019c5.531,2.924,12.062,0.867,12.062-4.73C52.787,34.831,71.22,20.403,91.081,7.403
				C109.923,21.421,129.082,35.12,162.774,34.289z"/>
		</defs>
		<clipPath id="SVGID_1_">
			<use xlink:href="#SVGID_27_"  overflow="visible"/>
		</clipPath>
		<g clip-path="url(#SVGID_1_)">
			<g>
				<path fill="#7D7D7D" d="M67.709,85.756l2.227-39.43c2.233-16.418,0.603-18.499-6.034-19.737
					c-4.332-0.808-11.137-1.987-6.532-3.728c7.67-2.9,19.034-3.247,21.52-0.323c2.486,2.924,32.861,56.923,32.861,56.923
					s24.493-54.983,29.271-56.923c4.778-1.94,17.325-2.166,22.266-0.766c4.208,1.192,10.171,6.266,5.694,5.635
					c-4.477-0.63-11.684,2.225-11.406,13.771l-1.087,50.064c0.87,8.392-1.087,11.411,2.672,12.943
					c4.509,1.837,13.294,10.452,7.482,8.775c-5.812-1.677-33.118-1.83-37.168,0c-4.05,1.83,5.497-7.301,9.269-8.9
					c3.037-1.288,1.882-2.953,1.859-10.855l-0.278-53.557h-0.695c0,0-31.066,61.6-32.636,52.296
					c-1.57-9.304-30.383-50.906-30.383-50.906h-0.556l-1.669,48.334"/>
				<path fill="#7D7D7D" d="M74.33,93.08c-0.033,0.836-0.48,33.519,0.056,37.68c0.536,6.041,5.014,4.884,8.298,6.241
					c2.887,1.193,9.588,7.711,6.226,6.976c-5.844-1.278-36.63-1.544-39.4,0c-2.769,1.544,0.891-3.517,4.008-4.869
					c3.118-1.352,10.434-3.2,11.269-8.069c0.777-4.151,2.67-39.651,2.92-41.027C68.313,90.201,73.53,92.351,74.33,93.08z
					 M76.156,40.138c0,0-1.294,33.121-1.322,35.924c-1.387,1.125-5.531,3.268-6.762,3.688c0.085-1.5,1.863-32.981,1.863-32.981
					c0.201-2.865,0.644-5.276,0.656-7.31"/>
				<path fill="#C2C2C2" d="M66.074,85.756l2.227-39.43c2.233-16.418,0.602-18.499-6.034-19.737
					c-4.332-0.808-11.137-1.987-6.532-3.728c7.67-2.9,19.034-3.247,21.52-0.323c2.486,2.924,32.861,56.923,32.861,56.923
					s24.493-54.983,29.271-56.923c4.778-1.94,17.325-2.166,22.266-0.766c4.208,1.192,10.171,6.266,5.694,5.635
					c-4.477-0.63-11.684,2.225-11.406,13.771l-1.087,50.064c0.87,8.392-1.087,11.411,2.672,12.943
					c4.509,1.837,13.294,10.452,7.482,8.775c-5.812-1.677-33.118-1.83-37.168,0c-4.05,1.83,5.497-7.301,9.269-8.9
					c3.037-1.288,1.882-2.953,1.859-10.855l-0.278-53.557h-0.695c0,0-31.066,61.6-32.636,52.296
					c-1.57-9.304-30.383-50.906-30.383-50.906h-0.556l-1.67,48.334"/>
				<path fill="#8F8F8F" d="M67.016,84.213c16.137,1.948,26.848,8.486,26.848,21.703c0,9.32-5.145,16.554-13.076,20.865
					c-7.095,4.034-17.806,5.983-29.351,5.983c0,0-30.324-3.09-34.499-1.022c-4.175,2.068-0.285-2.64,3.507-5.094
					c4.259-2.756,7.62-0.703,7.62-14.53V58.978c0-9.82-5.365-11.241-11.129-11.767c-3.726-0.34-4.875-3.927,6.457-5.945
					c17.594-3.132,29.804-1.349,33.919-0.836c4.115,0.514,17.912,3.303,23.198,6.781c5.147,3.339,8.208,8.903,8.208,15.859
					c0,13.216-11.686,18.641-21.703,20.588V84.213z M49.629,82.266c13.354,0,27.351-5.286,27.351-16.833
					c0-12.52-15.528-17.25-23.04-17.25c-3.061,0-5.425,0.835-6.261,1.67c-0.973,0.974-1.251,3.06-1.251,5.982v26.431H49.629z
					 M46.429,113.845c0,10.293,2.781,13.217,10.154,13.076c7.791-0.139,24.572-5.842,24.572-19.474
					c0-12.939-16.086-19.616-31.945-19.616h-2.781V113.845z"/>
				<path fill="#8F8F8F" d="M70.286,84.213c16.137,1.948,26.848,8.486,26.848,21.703c0,9.32-5.145,16.554-13.076,20.865
					c-7.095,4.034-17.806,5.983-29.351,5.983c0,0-30.324-3.09-34.499-1.022c-4.175,2.068-0.285-2.64,3.507-5.094
					c4.259-2.756,7.62-0.703,7.62-14.53V58.978c0-9.82-5.365-11.241-11.129-11.767c-3.726-0.34-4.875-3.927,6.457-5.945
					c17.594-3.132,29.804-1.349,33.919-0.836c4.115,0.514,17.912,3.303,23.198,6.781c5.147,3.339,8.208,8.903,8.208,15.859
					c0,13.216-11.686,18.641-21.703,20.588V84.213z M52.899,82.266c13.354,0,27.351-5.286,27.351-16.833
					c0-12.52-15.528-17.25-23.04-17.25c-3.061,0-5.425,0.835-6.261,1.67c-0.973,0.974-1.251,3.06-1.251,5.982v26.431H52.899z
					 M49.699,113.845c0,10.293,2.781,13.217,10.154,13.076c7.791-0.139,24.572-5.842,24.572-19.474
					c0-12.939-16.086-19.616-31.945-19.616h-2.781V113.845z"/>
				<path fill="#C2C2C2" d="M68.651,84.213c16.137,1.948,26.848,8.486,26.848,21.703c0,9.32-5.145,16.554-13.076,20.865
					c-7.095,4.034-17.806,5.983-29.351,5.983c0,0-30.324-3.09-34.5-1.022c-4.175,2.068-0.285-2.64,3.507-5.094
					c4.259-2.756,7.62-0.703,7.62-14.53V58.978c0-9.82-5.365-11.241-11.129-11.767c-3.726-0.34-4.875-3.927,6.457-5.945
					c17.594-3.132,29.804-1.349,33.919-0.836c4.115,0.514,17.912,3.303,23.198,6.781c5.147,3.339,8.208,8.903,8.208,15.859
					c0,13.216-11.686,18.641-21.703,20.588V84.213z M51.264,82.266c13.354,0,27.351-5.286,27.351-16.833
					c0-12.52-15.528-17.25-23.04-17.25c-3.061,0-5.425,0.835-6.261,1.67c-0.973,0.974-1.251,3.06-1.251,5.982v26.431H51.264z
					 M48.064,113.845c0,10.293,2.781,13.217,10.154,13.076c7.791-0.139,24.572-5.842,24.572-19.474
					c0-12.939-16.086-19.616-31.945-19.616h-2.781V113.845z"/>
				<path fill="#C2C2C2" d="M72.695,93.08c-0.033,0.836-0.48,33.519,0.056,37.68c0.536,6.041,5.014,4.884,8.298,6.241
					c2.887,1.193,9.588,7.711,6.226,6.976c-5.844-1.278-36.63-1.544-39.4,0c-2.769,1.544,0.891-3.517,4.008-4.869
					c3.118-1.352,10.434-3.2,11.269-8.069c0.777-4.151,2.67-39.651,2.92-41.027C66.678,90.201,71.895,92.351,72.695,93.08z
					 M74.521,40.138c0,0-1.294,33.121-1.322,35.924c-1.387,1.125-5.531,3.268-6.762,3.688c0.085-1.5,1.863-32.981,1.863-32.981
					c0.201-2.865,0.644-5.276,0.656-7.31"/>
			</g>
			<path fill="#757575" d="M66.3,135.532c0.944,0.282,2.999,0.407,3.741-0.145c0.551-0.41-0.825,1.273-1.103,2.619
				c-0.26,1.261-0.184,4.705-0.696,4.693c-0.435-0.01-0.628-3.624-0.846-4.841C67.131,136.385,65.99,135.439,66.3,135.532z"/>
			<path fill="#757575" d="M73.302,135.092c0.388-0.094,0.743-0.271,0.815,1.252c0.068,1.426,1.582,5.997,1.207,6.094
				c-0.331,0.086-1.662-4.623-2.241-5.868C72.384,135.066,72.801,135.213,73.302,135.092z"/>
			<path fill="#757575" d="M62.926,135.218c0.377,0.131,0.771,0.173,0.01,1.494c-0.713,1.238-1.906,5.902-2.274,5.782
				c-0.326-0.106,1.096-4.789,1.282-6.149C62.167,134.701,62.439,135.05,62.926,135.218z"/>
			<path fill="#757575" d="M59.468,135.964c0.212,0.204,0.479,0.335-0.722,1.311c-1.126,0.914-4.276,4.717-4.486,4.523
				c-0.186-0.171,3.141-3.935,3.941-5.082C59.166,135.329,59.194,135.7,59.468,135.964z"/>
			<path fill="#757575" d="M76.716,135.242c0.351-0.105,0.634-0.292,1.329,1.232c0.651,1.428,4.036,5.968,3.699,6.076
				c-0.297,0.095-3.555-4.589-4.643-5.82C75.786,135.241,76.264,135.377,76.716,135.242z"/>
			<path fill="#757575" d="M145.937,101.577c0.474,0.395,1.503,0.376,2.129,0c0.626-0.376-0.344,3.319-0.532,4.572
				c-0.188,1.253-0.344,4.509-0.783,4.509c-0.438,0-0.237-3.12-0.438-4.04C146.013,105.246,145.185,100.951,145.937,101.577z"/>
			<path fill="#757575" d="M142.993,102.313c0.721-0.216-0.138,3.438-0.605,4.614c-0.467,1.176-1.344,4.313-1.791,4.208
				c-0.447-0.105,0.445-3.098,0.442-4.043C141.035,105.683,142.271,102.53,142.993,102.313z"/>
			<path fill="#757575" d="M151.564,102.11c0.501-0.532,1.49,3.093,1.648,4.35c0.159,1.256,0.891,4.433,0.469,4.552
				c-0.422,0.119-1.075-2.938-1.518-3.769C151.503,106.003,151.063,102.641,151.564,102.11z"/>
			<path fill="#757575" d="M139.605,103.039c0.529-0.103-1.551,3.028-2.335,4.011c-0.785,0.984-2.654,3.653-2.879,3.505
				c-0.226-0.148,1.591-2.688,1.993-3.525C136.983,105.781,139.076,103.142,139.605,103.039z"/>
			<path fill="#757575" d="M155.059,103.004c0.255-0.535,1.879,2.759,2.302,3.915c0.423,1.157,1.744,4.054,1.451,4.199
				c-0.293,0.145-1.525-2.648-2.062-3.386C155.946,106.632,154.804,103.539,155.059,103.004z"/>
			<path fill="#757575" d="M25.493,45.91c0.31,2.586-2.53,2.948-4.034,4.034c-0.931,0.672,3.483,0.098,5.345-1.764
				c1.862-1.862,4.327,0.583,3.499,2.695c-0.457,1.165-1.53,2.795-4.603,3c-0.776,0.052,1.086,1.5,4.706-0.259
				c4.113-1.998,3.698-1.422-0.258-6.569c-1.518-1.975-5.461-3.494-7.655-3.517c-3.207-0.034-1.97,0.622-2.404,1.241
				c-0.65,0.927-3.647,2.586-4.682,3.207c-1.034,0.621,6.118-1.274,8.017-2.793C24.2,44.565,25.373,44.912,25.493,45.91z"/>
			<path fill="#757575" d="M48.134,122.265c-0.793-0.209-2.581,0.999-2.313,2.31c0.268,1.311,0.39,8.376,0.356,9.68
				c-0.035,1.304-0.533,1.693-0.737,0.628c-0.2-1.043-1.338-7.176-1.452-8.703c-0.114-1.524-0.261-2.618-0.772-2.419
				c-0.42,0.163-3.445,1.08-3.445,1.08c-0.229,1.382-0.691,2.642-0.998,4.384c-0.236,1.338-0.827,3.506-1.008,4.717
				c-0.182,1.211-0.697,1.205-0.782,0.65c-0.085-0.555,0.374-5.962,0.548-7.107c0.184-1.212,0.322-2.235-0.167-2.297
				c-0.301-0.037-1.179,0.044-2.255,0.108c-0.667,0.04-0.276,0.563-0.47,1.691c-0.194,1.128-1.715,5.586-2.317,7.413
				c-0.601,1.827-0.852,0.677-0.79,0.121c0.062-0.556,0.749-5.652,1.015-6.791c0.266-1.139,0.513-2.391,0.513-2.391
				s-1.584-0.217-1.762,0.063c-0.177,0.281,0.019,0.066-0.45,1.321c-0.469,1.255-1.187,2.801-1.99,4.277
				c-0.803,1.475-2.955,4.248-3.06,4.166c-0.489-0.386,1.962-5.095,2.456-6.185c0.494-1.09,0.926-2.917,0.926-2.917
				s-0.668-0.792-1.336,0.334c-0.668,1.126-0.764,1.42-1.921,2.839c-1.157,1.42-5.177,4.883-5.845,5.531
				c-0.668,0.648-1.921,0.481,0-1.69c1.92-2.171,2.357-2.334,3.642-4.006c1.285-1.672,3.458-5.829,3.874-5.346
				c2.496,1.215,16.198,0.772,20.125-2.798"/>
		</g>
	</g>
</g>
</svg>
