<?xml version="1.0" encoding="utf-8"?>
<!-- Generator: Adobe Illustrator 17.0.0, SVG Export Plug-In . SVG Version: 6.00 Build 0)  -->
<!DOCTYPE svg PUBLIC "-//W3C//DTD SVG 1.1//EN" "http://www.w3.org/Graphics/SVG/1.1/DTD/svg11.dtd">
<svg version="1.1" id="Layer_1" xmlns="http://www.w3.org/2000/svg" xmlns:xlink="http://www.w3.org/1999/xlink" x="0px" y="0px"
	 width="215px" height="213px" viewBox="0 0 215 213" enable-background="new 0 0 215 213" xml:space="preserve">
<linearGradient id="SVGID_1_" gradientUnits="userSpaceOnUse" x1="107.2444" y1="205.9024" x2="107.2444" y2="4.031">
	<stop  offset="0.26" style="stop-color:#4AFFFF"/>
	<stop  offset="0.5621" style="stop-color:#235C8B"/>
	<stop  offset="0.7295" style="stop-color:#0D004A"/>
</linearGradient>
<circle fill="url(#SVGID_1_)" cx="107.244" cy="104.967" r="100.936"/>
<g>
	<circle fill="#FFD942" stroke="#FFAD0A" stroke-miterlimit="10" cx="106.98" cy="150.332" r="14.664"/>
	<line fill="none" stroke="#FFAD0A" stroke-miterlimit="10" x1="107.007" y1="133.259" x2="107.007" y2="124.665"/>
	<line fill="none" stroke="#FFAD0A" stroke-miterlimit="10" x1="123.672" y1="150.348" x2="132.542" y2="150.348"/>
	<line fill="none" stroke="#FFAD0A" stroke-miterlimit="10" x1="107.274" y1="166.849" x2="107.274" y2="175.675"/>
	<line fill="none" stroke="#FFAD0A" stroke-miterlimit="10" x1="90.936" y1="150.407" x2="81.947" y2="150.407"/>
	<line fill="none" stroke="#FFAD0A" stroke-miterlimit="10" x1="119.437" y1="137.641" x2="123.819" y2="133.259"/>
	<line fill="none" stroke="#FFAD0A" stroke-miterlimit="10" x1="119.375" y1="162.552" x2="123.672" y2="166.849"/>
	<line fill="none" stroke="#FFAD0A" stroke-miterlimit="10" x1="94.904" y1="162.552" x2="90.523" y2="166.933"/>
	<line fill="none" stroke="#FFAD0A" stroke-miterlimit="10" x1="94.904" y1="138.166" x2="90.439" y2="133.7"/>
	<line fill="none" stroke="#FFAD0A" stroke-miterlimit="10" x1="123.194" y1="143.13" x2="128.894" y2="140.698"/>
	<line fill="none" stroke="#FFAD0A" stroke-miterlimit="10" x1="113.846" y1="166.22" x2="116.23" y2="171.81"/>
	<line fill="none" stroke="#FFAD0A" stroke-miterlimit="10" x1="91.141" y1="157.094" x2="85.442" y2="159.525"/>
	<line fill="none" stroke="#FFAD0A" stroke-miterlimit="10" x1="100.236" y1="134.467" x2="97.758" y2="128.659"/>
	<line fill="none" stroke="#FFAD0A" stroke-miterlimit="10" x1="123.236" y1="157.245" x2="128.88" y2="159.803"/>
	<line fill="none" stroke="#FFAD0A" stroke-miterlimit="10" x1="99.899" y1="165.96" x2="97.39" y2="171.496"/>
	<line fill="none" stroke="#FFAD0A" stroke-miterlimit="10" x1="91.28" y1="143.058" x2="85.637" y2="140.5"/>
	<line fill="none" stroke="#FFAD0A" stroke-miterlimit="10" x1="114.104" y1="134.469" x2="116.711" y2="128.717"/>
</g>
<g>
	<g>
		<circle fill="#339933" cx="107.244" cy="104.967" r="30.328"/>
		<g>
			<g>
				<g>
					<path fill="#4471BF" d="M139.443,111.983c0.245-1.007-1.136,2.71-0.695,0.537c-0.633,1.402-1.199,4.564-2.164,6.271
						c-0.551-0.033-0.228-1.675-2.035,1.136c-1.27,1.824-1.128,2.076-0.923,2.312c0.2,0.23,0.521,0.464-0.704,2.113
						c0,0,0.447-0.543,0.895-1.087c0.236-0.264,0.413-0.569,0.567-0.784c0.148-0.219,0.247-0.365,0.247-0.365
						c-0.099,0.354-0.232,0.764-0.442,1.184c-0.224,0.411-0.495,0.855-0.801,1.322c-0.316,0.459-0.628,0.976-1.037,1.447
						c-0.417,0.466-0.853,0.951-1.299,1.448c-0.436,0.508-0.941,0.97-1.463,1.42c-0.517,0.454-1.037,0.912-1.551,1.365
						c-0.55,0.41-1.094,0.816-1.623,1.211c-0.262,0.201-0.521,0.398-0.775,0.593c-0.266,0.176-0.528,0.349-0.784,0.518
						c-3.462,1.483-6.832,1.701-11.19,2.913c0.231-0.14,1.271-0.591,0.989-0.791c-0.432-0.027-0.978,0.129-1.542,0.227
						c-0.563,0.1-1.124,0.244-1.54,0.358c-2.274,0.92,0.763,0.684-0.061,1.257c-0.984,0.335-1.97,0.506-3.072,0.673
						c-1.101,0.205-2.325,0.127-3.761-0.091c0,0-0.218-0.08-0.545-0.199c-0.325-0.118-0.748-0.344-1.168-0.538
						c-0.823-0.402-1.645-0.803-1.645-0.803c-0.645,0.267-1.333,0.217-2.094,0.115c-0.758-0.116-1.579-0.333-2.415-0.732
						c-0.838-0.389-1.772-0.731-2.692-1.269c-0.934-0.506-1.972-0.945-3.031-1.509c-0.216-0.555-1.522-1.202-2.709-2.067
						c-1.251-0.773-2.352-1.766-2.458-2.328c-0.833-0.738-0.558-1.155-0.195-1.584c0.36-0.424,0.797-0.867,0.438-1.665
						c-1.592-2.426,1.568,1.236-0.01-1.174c1.141,1.025,0.928,1.564,0.891,2.153c-0.04,0.58-0.021,1.355,1.739,2.649l-0.006-0.332
						c0.42,0.185,0.853,0.475,1.291,0.814c0.434,0.344,0.879,0.729,1.361,1.032c0.941,0.636,1.835,1.256,2.565,1.154
						c2.026,1.059,1.919,1.294,1.51,1.44c-0.404,0.148-1.135,0.208-0.182,0.982c0.383-0.019,0.99,0.07,1.688,0.199
						c0.349,0.069,0.72,0.142,1.099,0.217c0.379,0.074,0.782,0.092,1.165,0.136c0.771,0.072,1.499,0.133,2.055,0.107
						c0.566-0.071,0.952-0.195,1.035-0.408c0,0-0.219-0.032-0.548-0.081c-0.333-0.031-0.761-0.146-1.19-0.258
						c-0.859-0.218-1.719-0.435-1.719-0.435c0.563,0.119,0.186-0.168,0.433-0.186c0.531,0.346,1.381,0.536,2.302,0.563
						c0.935-0.027,1.924-0.148,2.754-0.244c1.669-0.359,2.77-0.516,1.864,0.734c-0.471,0.126-1.707-0.002-2.102,0.243
						c0.055,0.328,0.712,0.419,1.582,0.475c0.435,0.016,0.922,0.034,1.416,0.052c0.494-0.018,0.994-0.065,1.457-0.069
						c0.45-0.184,0.937-0.384,1.437-0.589c0.49-0.224,0.988-0.505,1.517-0.727c0.525-0.246,1.093-0.394,1.682-0.615
						c0.591-0.213,1.229-0.376,1.944-0.467c1.001-0.1,0.539,0.388,1.541,0.215c0.669-0.339,1.263-0.589,1.782-0.829
						c0.506-0.272,0.956-0.488,1.373-0.668c0.415-0.184,0.806-0.313,1.166-0.458c0.352-0.16,0.692-0.3,1.037-0.44
						c0.683-0.29,1.429-0.521,2.231-1.064c0.411-0.256,0.859-0.554,1.358-0.915c0.498-0.362,0.978-0.87,1.551-1.423
						c1.741-1.059,3.237-2.772,4.589-4.563c0.633-0.927,1.244-1.875,1.841-2.8c0.515-0.969,1.148-1.86,1.671-2.756
						c-0.745,0.369,0.775-2.594,0.95-3.425c0.191-0.249,0.523-0.9,0.842-1.701c0.239-0.817,0.448-1.788,0.499-2.614
						c-0.134,0.966,0.199,0.409,0.229,1.107c0.216-1.875,0.28-2.979,0.59-3.646c0.273-0.667,0.619-0.899,0.876-1.009
						c0.094,1.508,0.346,2.366,0.512,3.304C139.905,109.195,139.939,110.221,139.443,111.983z"/>
					<path fill="#4471BF" d="M78.41,118.456c0.671,0.105-0.012-1.363-0.298-2.62c-0.344-1.244-0.543-2.139,0.603-0.786
						c-0.326-1.079-0.489-1.877-0.727-2.533c-0.217-0.66-0.541-1.173-0.78-1.775c0.203,2.63-0.338-0.588-0.482,0.886
						c-1.182-4.116-1.345-8.443-0.633-12.535c0.711-4.099,2.314-7.955,4.542-11.286c1.998-2.251,3.746-4.384,5.729-6.327
						c0.921-1.048,2.006-1.906,3.014-2.91c0.549-0.443,1.103-0.89,1.662-1.341l0.852-0.682l0.913-0.609
						c3.381-1.284,1.561,0.494,1.14,1.342c0,0,0.243-0.115,0.607-0.288c0.362-0.178,0.846-0.409,1.359-0.573
						c1.01-0.363,2.021-0.727,2.021-0.727s-0.953,0.534-1.906,1.068c-0.479,0.246-0.922,0.563-1.252,0.799
						c-0.331,0.232-0.551,0.386-0.551,0.386c0.066,0.44,1.758-0.385,2.854-0.383l1.046-0.5c-0.167,0.587-0.711,1.047-1.49,1.434
						c-0.787,0.37-1.736,0.862-2.831,1.255c-2.087,0.953-4.538,2.171-5.745,3.729c3.48-3.089-1.006-0.059,0.261-1.631
						c0,0-0.294,0.233-0.583,0.473c-0.289,0.241-0.579,0.482-0.579,0.482c0.245-0.229,0.527-0.539,0.856-0.914
						c0.339-0.363,0.762-0.744,1.223-1.195c0.899-0.93,2.161-1.863,3.672-2.795c-4.429,2.204-8.095,5.779-10.536,9.733
						c-2.481,3.962-3.584,8.353-3.798,12.209c-0.089-0.241-0.154-0.877-0.396-0.204c-0.236,1.387-0.174,2.522,0.131,3.445
						c0.274,0.921,0.536,1.619,0.734,2.203c-0.036,0.004-0.292-1.184-0.292-1.184c-0.32,0.834-0.142,1.96,0.023,3.1
						c0.065,0.574,0.244,1.142,0.402,1.691c0.155,0.549,0.295,1.079,0.392,1.569c-0.006,1.112-0.026,2.072,0.111,3.205
						c0.263,1.088,0.556,2.418,1.607,4.022l-0.435,0.068c0,0,0.072,0.181,0.18,0.453c0.117,0.267,0.233,0.646,0.417,0.99
						c0.359,0.696,0.717,1.391,0.717,1.391c-0.466-0.626-0.45-0.264-0.439-0.077c-0.225-0.133-0.236-0.318-0.479-0.818
						c-0.328,0.071-0.471,0.561-0.451,1.277c0.028,0.71,0.174,1.68,0.582,2.544c-0.323-0.496-0.615-1.007-0.849-1.354
						c0.072,0.181,0.165,0.419,0.289,0.681c0.14,0.254,0.297,0.538,0.461,0.835c0.33,0.596,0.687,1.245,0.961,1.801
						c0.619,1.047,0.898,1.749-0.271,0.94c-0.759-0.875-1.156-1.665-1.481-2.298c-0.154-0.323-0.281-0.618-0.381-0.902
						c-0.075-0.29-0.147-0.572-0.219-0.85C79.63,121.267,79.323,120.295,78.41,118.456z"/>
					<path fill="#4471BF" d="M92.666,129.999c-2.312-1.818,0.937,0.051,0.604-0.676c0,0,0.534,0.352,1.126,0.593
						c0.578,0.267,1.156,0.534,1.156,0.534C95.428,130.916,93.071,129.846,92.666,129.999z"/>
					<path fill="#4471BF" d="M112.524,72.896c0.108,0.219,0.696,0.337,1.391,0.494c0.688,0.191,1.495,0.378,2.059,0.577
						c1.197,0.111,1.925,0.275,2.801,0.432c0.43,0.1,0.902,0.195,1.438,0.417c0.53,0.235,1.146,0.544,1.902,0.971
						c-1.468-0.07-0.959,0.563,0.072,1.39c0.978,0.936,2.514,2.074,3.186,3.107c-0.348-0.205-0.762-0.461-1.256-0.691
						c-0.502-0.218-1.052-0.459-1.61-0.732c-0.279-0.137-0.561-0.281-0.841-0.436c-0.292-0.132-0.588-0.266-0.876-0.415
						c-0.577-0.297-1.133-0.641-1.642-1.051c0.427-0.211-1.648-1.187-2.705-1.676c-0.937,0.051-0.714,0.552-1.128,0.846
						c-0.204,0.148-0.562,0.245-1.276,0.216c-0.706-0.075-1.803-0.094-3.474-0.295c-1.219-0.337-4.286-0.129-4.105-0.697
						c-0.89-0.162-1.643,0.61-2.642,0.217l-0.514-0.187c0,0,0.264-0.066,0.659-0.164c0.396-0.103,0.935-0.147,1.473-0.234
						c0.541-0.077,1.083-0.155,1.489-0.213c0.408-0.072,0.681-0.06,0.681-0.06c0.16,0.096,0.484,0.288,0.878,0.271
						c-0.402-0.239,0.784-0.416,1.76-0.644c0.962-0.163,1.723-0.349,0.298-0.958c0,0-1.567-0.078-3.133-0.147
						c-1.566,0.052-3.13,0.158-3.13,0.158c-0.77-0.065-0.64-0.258-0.017-0.45c0.623-0.178,1.74-0.357,2.894-0.459
						C110.5,73.061,110.28,72.934,112.524,72.896z"/>
					<path fill="#4471BF" d="M97.189,75.593l-0.373-0.05c-0.053-0.137,5.174-1.679,5.213-1.526
						C101.992,73.898,97.129,75.456,97.189,75.593z"/>
					<path fill="#4471BF" d="M130.942,82.353c-0.434-0.355-0.8-0.718-1.186-1.064c-0.377-0.354-0.756-0.709-1.23-1.005l0.427-0.703
						c0,0,0.516,0.686,1.033,1.371C130.516,81.613,130.942,82.353,130.942,82.353z"/>
					<path fill="#4471BF" d="M83.578,89.669c-0.012,0.378-0.144,0.819-0.338,1.285c-0.203,0.462-0.453,0.958-0.639,1.48
						c-0.411,1.022-0.847,2.001-0.698,2.621c0.309-0.803,0.04-0.594,0.006-0.838l-0.806,1.497c0.059-0.534,0.16-1.059,0.289-1.577
						c0.164-0.504,0.384-0.99,0.602-1.486C82.393,91.639,83.022,90.718,83.578,89.669z"/>
					<path fill="#4471BF" d="M137.106,91.665c0.462,0.831,0.717,1.544,1.059,2.136c0.302,0.606,0.655,1.112,0.879,1.685
						c0.448,1.138,1.015,2.382,1.07,4.657c-0.079,0.99-0.582-1.117-0.56,0.293c0.043,1.389,0.343,1.679,0.546,2.355l0.234-0.56
						c-0.232,0.564-0.415,1.694-0.661,2.449c-0.255,0.742-0.598,1.094-1.026,0.286c-0.015-1.326-0.108-2.481-0.355-3.494
						c-0.29-1.01-0.619-1.89-0.927-2.72c-0.389-0.814-0.747-1.579-1.016-2.396c-0.27-0.818-0.594-1.642-0.717-2.667
						c0,0,0.139-0.245,0.278-0.49c0.135-0.249,0.271-0.498,0.271-0.498l-1.266-2.126c-0.009-0.184,0.254-0.245-0.233-0.92
						c-0.6-0.646-0.521-0.321-0.353,0.165c0.193,0.474,0.345,1.182,0.142,1.208c0,0-0.155-0.246-0.388-0.615
						c-0.267-0.346-0.624-0.807-0.981-1.269c-0.364-0.453-0.688-0.926-0.99-1.24c-0.297-0.315-0.495-0.526-0.495-0.526
						c-0.295-0.479,0.479,0.227,0.452,0.046c-0.507-0.985-1.152-1.63-1.87-2.128c-0.707-0.512-1.302-1.037-1.706-1.962
						c0,0,0.164,0.087,0.37,0.26c0.212,0.169,0.495,0.394,0.778,0.618c0.572,0.457,1.144,0.913,1.144,0.913
						c-2.17-2.748-4.058-4.623-5.917-6.353c2.883,2.114,5.174,3.716,7.325,5.543c0.505,0.48,0.992,0.977,1.48,1.489l0.723,0.785
						c0.221,0.28,0.425,0.577,0.634,0.876c0.41,0.604,0.824,1.232,1.188,1.92C136.539,90.1,136.838,90.857,137.106,91.665z"/>
				</g>
			</g>
		</g>
	</g>
	<g>
		<circle fill="#339933" cx="107.244" cy="104.967" r="30.328"/>
		<g>
			<g>
				<g>
					<path fill="#FFFFFF" d="M120.714,75.756c-1.465-0.527,0.771,0.547-0.067,0.145c0,0-0.2-0.074-0.499-0.184
						c-0.294-0.122-0.702-0.245-1.117-0.345c-0.82-0.215-1.64-0.43-1.64-0.43c1.348,0.322,1.131,0.046,1.096-0.088
						c-0.017-0.066,0.014-0.096,0.319,0.008C119.105,74.974,119.704,75.163,120.714,75.756z"/>
					<path fill="#FFFFFF" d="M115.368,75.387l-0.626,0.058c-0.422-0.131-1.049-0.363-1.435-0.508
						c-0.389-0.127-0.523-0.228,0.081-0.216C113.948,74.96,114.507,75.169,115.368,75.387z"/>
					<path fill="#41B649" d="M117.178,80.361l-0.924-0.45c0.48,0.181,0.823,0.007,1.53,0.339
						C117.789,80.233,117.178,80.361,117.178,80.361z"/>
					<path fill="#41B649" d="M80.821,112.398c-0.016,0.128-0.017,0.308,0.009,0.599c-0.303-0.035-0.517-0.342-0.977-1.405
						c-0.038-0.253-0.111-0.582-0.195-0.928c-0.048-0.353-0.099-0.725-0.143-1.055c-0.083-0.659-0.118-1.145,0.061-0.974
						l0.054,0.251c0.104-0.043,0.216-0.38,0.268-0.854c0.048-0.474,0.147-1.097,0.064-1.723c-0.198-0.277-0.469,0.809-0.829-0.417
						c-0.124-0.777-0.055-1.64,0.037-2.457c0.045-0.409,0.099-0.807,0.162-1.177c0.068-0.37,0.203-0.707,0.307-1.006l-0.331-1.253
						c0.128-0.765,0.359-1.213,0.554-1.607c0.197-0.393,0.389-0.727,0.599-1.231l0.01,0.828c0.162-0.252,0.313-0.234,0.484-0.385
						c0.188-0.146,0.308-0.486,0.66-1.37c0.232-1.268,0.207-1.554,0.835-3.135c0.335-0.403,0.592-0.948,0.97-1.488
						c0.366-0.546,0.73-1.152,1.091-1.777c0.826-1.177,1.644-2.441,2.547-3.252c0.248-0.572,0.679-1.208,1.302-1.749
						c0.609-0.554,1.258-1.173,2.008-1.633c1.41-1.048,2.886-1.798,3.424-2.725c1.827-0.796,2.762-1.374,3.533-1.815
						c0.758-0.464,1.255-1.013,2.259-1.469c1.604-0.135,0.633,0.294-0.474,0.75c-1.094,0.525-2.294,1.181-1.445,1.131
						c2.092-0.757,4.372-1.202,6.677-1.575c2.321-0.208,4.704-0.314,6.951,0.103c1.2-0.169-0.738-0.848,1.693-0.571
						c-0.838,0.09-0.021,0.585,0.788,0.835c-0.888-0.288,0.058-0.159,0.191-0.246l-0.644-0.24c-0.148-0.483,0.651-0.253,1.689,0.09
						c0.258,0.09,0.536,0.169,0.808,0.278c0.271,0.115,0.545,0.232,0.809,0.344c0.535,0.212,1.049,0.377,1.473,0.417
						c0.589,0.522-0.819-0.302-1.036-0.079c-0.115,0.41,0.445,0.953,2.289,2.065c2.02,0.706,3.496,1.838,4.878,3.077
						c0.71,0.602,1.304,1.354,2.027,2.04c0.664,0.749,1.363,1.537,2.137,2.41c0.125-0.369,0.8,0.776,1.293,1.352
						c-0.402-0.3-0.386-0.025-0.215,0.409c0.162,0.442,0.41,1.091,0.623,1.48c0.355,0.419,0.704,0.581,1.047,0.844
						c0.319,0.275,0.651,0.645,1.006,1.445l0.02-1.332c-0.062-0.157-0.168-0.416-0.352-0.705c-0.197-0.278-0.432-0.609-0.678-0.955
						c-0.25-0.337-0.51-0.688-0.754-1.017c-0.254-0.318-0.531-0.583-0.731-0.808c0.045-0.498-0.885-1.697-1.863-2.617
						c-0.895-0.996-1.834-1.71-1.302-1.879l0.482,0.6c1.67,2.23,3.293,2.712,5.016,4.859c0.461,1.001,0.684,1.703,0.757,2.37
						c0.1,0.653,0.145,1.22,0.286,1.922c0.416,1.645,0.827,1.976,1.255,2.773c0.483,1.407,0.46,2.181,0.401,3.032
						c0.107,0.503,0.116-0.261,0.223,0.245c0.031,0.684,0.024,1.441,0.135,1.945c0.304,0.095,0.345-0.56,0.301-1.465
						c-0.029-0.451-0.048-0.969-0.123-1.471c-0.095-0.499-0.188-0.994-0.253-1.423c0.19,0.413,0.331,0.489,0.466,1.089
						c0.164,0.507,0.024,0.428-0.014,0.521l0.221,1.041c0.17-0.001,0.452-0.279,0.696,1.138c0,0-0.053,0.219-0.105,0.438
						c-0.046,0.217-0.135,0.436-0.135,0.436c0.024,2.789,0.9,4.207,0.78,0.49l-0.367-0.293c0,0,0.021-0.223,0.051-0.557
						c-0.002-0.334-0.004-0.778-0.006-1.223c-0.006-0.894-0.015-1.805-0.015-1.805c0.264-0.654,0.518,1.623,0.857,1.623
						c0.247,0.232,0.306-0.437,0.285-1.355c-0.022-0.916-0.296-2.041-0.41-2.742c-0.6-1.344-0.102,0.965,0.095,1.964l-1.103-1.83
						c-0.139-0.538-0.335-1.331-0.161-1.364c-0.038-0.655,0.672-0.124,0.22-1.181c-0.505-1.581-0.743-1.529-0.874-1.447
						c-0.149,0.089-0.286,0.242-0.889-0.967c-0.128,0.912,1.316,5.099,1.22,6.554c0,0,0.313,1.123,0.277,1.13
						c-0.173,0.534-0.528-1.81-0.299-0.069c-0.533-1.366-0.839-3.081-1.297-4.706c-0.164-0.835-0.426-1.614-0.64-2.343
						c-0.219-0.726-0.368-1.416-0.588-1.93c0.329-0.205-0.651-2.523,0.791-1.105c-0.505-0.902-0.458-1.567-1.421-2.67
						c-1.391-1.418-2.359-2.397-3.185-3.472c-0.445-0.504-0.903-0.98-1.399-1.49c-0.25-0.253-0.513-0.511-0.799-0.772
						c-0.308-0.235-0.639-0.473-1.001-0.715c0.32,0.348-0.327,0.048-0.481,0.08c-0.917-0.778-1.264-1.176-1.346-1.4
						c-0.073-0.237,0.143-0.331,0.304-0.438c0.16-0.106,0.263-0.226-0.056-0.526c-0.159-0.15-0.425-0.345-0.84-0.604
						c-0.423-0.245-0.96-0.62-1.769-0.929c-1.105-0.465-1.746-0.551-1.504-0.209c0.343,0.247,0.708,0.509,1.099,0.791
						c0.202,0.137,0.421,0.274,0.671,0.407c0.238,0.155,0.504,0.31,0.813,0.46c-0.101,0.135,1.779,1.27,0.489,0.894
						c-0.635-0.409-1.192-0.761-1.741-0.997c-0.556-0.223-1.068-0.399-1.56-0.566c-0.97-0.372-1.92-0.555-3.03-1.041l-0.822-0.018
						c-0.44-0.146-1.243-0.257-2.065-0.427c-0.414-0.073-0.829-0.193-1.229-0.255c-0.4-0.063-0.77-0.141-1.075-0.24
						c-3.628-0.741,0.336-0.527,0.546-0.783c0,0-0.768-0.159-1.535-0.318c-0.384-0.086-0.771-0.159-1.064-0.176
						c-0.293-0.031-0.488-0.051-0.488-0.051c-0.92,0.123-1.74,0.073-2.518,0.038c-0.777-0.004-1.51-0.077-2.235-0.144
						c-0.727-0.097-1.433-0.062-2.149,0.017c-0.712,0.101-1.446,0.204-2.155,0.594l0.27-0.259c0.851-0.285,0.687-0.42,0.133-0.479
						c-0.546-0.028-1.464,0.114-2.088,0.276l-0.934,0.411c-0.332,0.278-0.844,0.612-1.492,0.909
						c-0.64,0.319-1.436,0.567-2.214,0.982c-0.784,0.397-1.655,0.738-2.434,1.201c-0.776,0.467-1.524,0.936-2.162,1.391
						c-0.557,0.373-0.858,0.42-0.404,0.04c0,0-0.742,0.455-1.485,0.91c-0.369,0.233-0.754,0.451-1.019,0.643
						c-0.262,0.197-0.437,0.328-0.437,0.328c-0.135,0.608-0.595,1.033-1.213,1.501c-0.63,0.452-1.305,1.068-1.977,1.86
						c-0.38,0.614-0.545,1.073-0.738,1.579c-0.201,0.499-0.441,1.034-0.908,1.836c-0.749,0.91-1.327,1.808-1.857,2.65
						c-0.444,0.89-0.823,1.739-1.195,2.569c-0.33,0.849-0.59,1.707-0.939,2.572c-0.357,0.864-0.59,1.804-1.025,2.795
						c0.092,0.19,0.121,0.491,0.151,0.807c0.05,0.321,0.086,0.655,0.138,0.907c0.103,0.505,0.27,0.666,0.72-0.246
						c-1.063,4.111-1.615,8.095-0.888,12.338c0.154,0.271,0.311,0.549,0.465,0.819c0.671,0.38,1.744,1.463,2.715,1.787
						c0.463,0.175,0.848,0.19,1.062-0.081C80.95,113.936,80.917,113.407,80.821,112.398z"/>
					<path fill="#41B649" d="M133.776,100.332c0,0-0.059-0.407-0.117-0.815c-0.102-0.398-0.204-0.797-0.204-0.797l-0.092,0.254
						C133.294,99.628,133.663,99.513,133.776,100.332z"/>
					<path fill="#FFFFFF" d="M102.351,139.174c0.504,0.017,1.026,0.044,1.507,0.017c0.483-0.047,0.922-0.105,1.256-0.171
						c0.668-0.132,0.913-0.293,0.271-0.459c-0.646-0.057-1.257-0.039-1.844-0.091c-0.586-0.054-1.157-0.106-1.725-0.158
						c-0.567-0.067-1.146-0.087-1.72-0.237c-0.575-0.144-1.165-0.318-1.779-0.546c-0.057,0.205,0.699,0.552,1.597,0.902
						C100.811,138.775,101.875,138.976,102.351,139.174z"/>
					<path fill="#41B649" d="M114.859,73.429c0,0-0.175-0.042-0.438-0.106c-0.264-0.058-0.609-0.165-0.969-0.201
						c-0.713-0.1-1.426-0.201-1.426-0.201l0.57,0.448c1.129,0.269,1.299,0.229,1.39,0.132
						C114.078,73.399,114.084,73.244,114.859,73.429z"/>
					<path fill="#FFFFFF" d="M111.955,134.731c-0.032-0.21,0.505-0.508-0.616-0.229c0,0-0.418,0.158-0.835,0.316
						c-0.421,0.153-0.853,0.249-0.853,0.249C109.936,135.03,112.58,134.944,111.955,134.731z"/>
					<path fill="#FFFFFF" d="M117.554,132.381l-0.485-0.503c-0.741,0.382-1.178,0.86-2.03,0.938
						C116.154,132.662,116.238,132.904,117.554,132.381z"/>
					<path fill="#FFFFFF" d="M105.63,134.094c0.767,0.187,1.373,0.287,1.877,0.228c0.505-0.058,0.908-0.172,1.29-0.277
						c0.769-0.209,1.435-0.36,2.742-0.165c1.812-0.317,2.362-0.726,2.377-0.959c0.012-0.244-0.52-0.395-0.964-0.554
						c-1.343,0.216,0.159,0.732-2.013,1.282c-0.693,0.087-1.469,0.036-2.097-0.013c-0.629-0.055-1.113-0.149-1.25-0.328
						C104.026,133.14,107.588,133.964,105.63,134.094z"/>
					<polygon fill="#FFFFFF" points="117.029,130.987 115.519,131.542 116.412,131.666 					"/>
					<polygon fill="#FFFFFF" points="105.732,132.233 104.387,132.432 106.783,132.607 					"/>
					<path fill="#FFFFFF" d="M108.823,130.95l-1.01,0.053c-0.748,0.226-1.267,0.354-0.499,0.56
						C108.597,131.439,108.327,131.136,108.823,130.95z"/>
					<path fill="#41B649" d="M82.843,123.183c1.374,3.493,4.471,7.75,9.234,10.733c0.524,0.146,1.055,0.293,1.6,0.444
						c0.544,0.159,1.098,0.341,1.712,0.46c0,0,0.766,0.407,1.532,0.814c0.385,0.208,0.774,0.411,1.081,0.522
						c0.303,0.125,0.505,0.208,0.505,0.208c0.842,0.198,1.71,0.47,2.607,0.585c0.898,0.113,1.796,0.206,2.653,0.27
						c0.861,0.014,1.686-0.052,2.422-0.122c0.368-0.038,0.716-0.085,1.036-0.14c0.321-0.083,0.615-0.178,0.878-0.277
						c0.618,0.075,0.626,0.182,1.252,0.255c0.304-0.069,0.686-0.116,1.107-0.154c0.419-0.072,0.874-0.15,1.33-0.229
						c0.907-0.178,1.827-0.298,2.366-0.668c1.536-0.175,1.632,0.13,2.643,0.197c0.793-0.349,1.647-0.686,2.551-0.986
						c0.909-0.289,1.789-0.729,2.709-1.09c0.931-0.345,1.76-0.888,2.589-1.366c0.836-0.469,1.537-1.087,2.146-1.707
						c0.455-0.061,0.924-0.304,1.384-0.657c0.434-0.384,0.865-0.868,1.297-1.356c0.904-0.943,1.623-2.068,2.602-2.489
						c2.779-2.683,4.451-6.594,4.234-7.671c0.149,0.058-0.015,1.381,0.87,0.033c0.087-0.306,0.312-0.9,0.263-0.921
						c0.076-0.138,0.397-0.864,0.734-1.673c0.341-0.808,0.659-1.711,0.62-2.214c0.002-0.402-0.044-0.535-0.147-0.471
						c-0.804,1.705-1.13,0.388-1.34-1.545c-0.224-1.954-0.646-4.545-1.13-5.833l-0.131-1.17c-0.241,1.406-0.326,2.932-0.655,4.722
						c0.366-0.509-0.153,2.228,0.348,0.901c0.042-0.279,0.031-0.562,0.072-0.839c0,0,0.153-0.476,0.306-0.953
						c0.077-0.24,0.154-0.481,0.212-0.661c0.064-0.18,0.083-0.304,0.083-0.304c0.016,0.427-0.07,0.988-0.15,1.613
						c-0.107,0.62-0.144,1.317-0.34,1.964c-0.324,1.308-0.563,2.564-0.553,3.17c-0.425,0.917-0.769,1.477-1.123,1.906
						c-0.386,0.417-0.74,0.723-1.126,1.158c-1.386,2.764-3.847,5.41-5.295,7.447c-1.05,1.111-1.819,1.623-2.366,1.937
						c-0.595,0.26-1.007,0.297-1.446,0.395c-0.239,0.245-0.551,0.508-0.887,0.775c-0.339,0.263-0.741,0.471-1.097,0.701
						c-0.728,0.436-1.33,0.883-1.498,1.141c-1.194,0.384-2.017,0.556-2.711,0.554c-0.702-0.021-1.239-0.123-1.809-0.167
						c-0.89,0.217-1.334,0.294-1.686,0.476c-0.354,0.173-0.629,0.396-1.233,0.691c-1.821,0.298-1.677-0.048-1.593-0.299
						c0.079-0.283,0.098-0.482-1.906-0.236c-0.764-0.019-1.638,0.107-2.336,0.282c-0.696,0.098-1.215,0.256-1.219,0.417
						c-0.452-0.103-0.933-0.162-1.424-0.199c-0.487-0.074-0.98-0.148-1.458-0.22c-0.478-0.072-0.943-0.13-1.359-0.225
						c-0.409-0.131-0.773-0.273-1.063-0.444c-0.736,0.064-1.518,0.016-2.259-0.274c-0.376-0.127-0.755-0.274-1.135-0.432
						c-0.189-0.08-0.379-0.162-0.571-0.244l-0.548-0.315c-1.495-0.802-2.908-1.769-4.543-2.36c-2.964-2.25-5.38-4.013-7.688-6.856
						c-0.61-0.109-1.059,0.06-1.289,0.556c-0.112,0.245-0.184,0.583-0.167,0.99C82.57,122.135,82.668,122.616,82.843,123.183z"/>
				</g>
			</g>
		</g>
	</g>
</g>
<path fill="#F5EECE" stroke="#938E4D" stroke-miterlimit="10" d="M102.593,31.331c-1.158,0-2.284,0.138-3.364,0.392
	c5.446,2.141,9.303,7.443,9.303,13.649c0,6.941-4.824,12.751-11.3,14.272c1.661,0.653,3.468,1.016,5.361,1.016
	c8.099,0,14.664-6.565,14.664-14.664S110.692,31.331,102.593,31.331z"/>
<polygon fill="#E8E18E" points="83.149,28.279 80.567,26.784 77.872,28.062 78.497,25.146 76.448,22.978 79.415,22.67 
	80.844,20.052 82.053,22.779 84.985,23.329 82.765,25.321 "/>
<polygon fill="#E8E18E" points="144.853,44.748 145.22,45.491 146.04,45.61 145.447,46.189 145.587,47.005 144.853,46.62 
	144.12,47.005 144.26,46.189 143.667,45.61 144.487,45.491 "/>
<polygon fill="#E8E18E" points="159.188,50.093 157.146,49.696 155.661,51.153 155.408,49.088 153.563,48.126 155.448,47.247 
	155.793,45.195 157.212,46.717 159.27,46.411 158.261,48.23 "/>
<polygon fill="#E8E18E" points="54.106,36.555 54.787,37.936 56.311,38.158 55.208,39.233 55.469,40.751 54.106,40.034 
	52.743,40.751 53.003,39.233 51.9,38.158 53.424,37.936 "/>
<polygon fill="#E8E18E" points="74.739,41.329 75.611,43.097 77.562,43.38 76.15,44.756 76.484,46.698 74.739,45.781 72.994,46.698 
	73.328,44.756 71.916,43.38 73.867,43.097 "/>
<polygon fill="#E8E18E" points="106.98,12.552 107.756,14.124 109.49,14.376 108.235,15.599 108.532,17.326 106.98,16.511 
	105.429,17.326 105.726,15.599 104.471,14.376 106.205,14.124 "/>
<polygon fill="#E8E18E" points="92.714,12.552 93.415,13.974 94.984,14.202 93.849,15.308 94.117,16.87 92.714,16.133 91.311,16.87 
	91.579,15.308 90.443,14.202 92.012,13.974 "/>
<polygon fill="#E8E18E" points="117.257,18.619 117.532,19.176 118.146,19.265 117.702,19.698 117.807,20.31 117.257,20.021 
	116.708,20.31 116.813,19.698 116.368,19.265 116.982,19.176 "/>
<polygon fill="#E8E18E" points="143.667,25.253 143.942,25.81 144.556,25.899 144.112,26.333 144.216,26.945 143.667,26.656 
	143.117,26.945 143.222,26.333 142.778,25.899 143.392,25.81 "/>
<polygon fill="#E8E18E" points="164.485,40.744 164.3,40.836 164.27,41.041 164.126,40.892 163.922,40.927 164.018,40.744 
	163.922,40.561 164.126,40.596 164.27,40.448 164.3,40.653 "/>
<polygon fill="#E8E18E" points="170.406,46.977 170.221,47.068 170.191,47.273 170.046,47.125 169.842,47.16 169.939,46.977 
	169.842,46.793 170.046,46.828 170.191,46.68 170.221,46.885 "/>
<polygon fill="#E8E18E" points="131.1,40.448 130.454,39.14 129.011,38.93 130.055,37.912 129.809,36.474 131.1,37.153 
	132.391,36.474 132.145,37.912 133.189,38.93 131.746,39.14 "/>
<polygon fill="#E8E18E" points="131.1,15.207 130.454,13.899 129.011,13.689 130.055,12.671 129.809,11.233 131.1,11.912 
	132.391,11.233 132.145,12.671 133.189,13.689 131.746,13.899 "/>
<polygon fill="#E8E18E" points="57.912,32.517 57.563,31.811 56.784,31.698 57.348,31.148 57.215,30.373 57.912,30.739 
	58.608,30.373 58.475,31.148 59.039,31.698 58.26,31.811 "/>
<polygon fill="#E8E18E" points="90.439,44.748 90.94,44.501 91.02,43.948 91.41,44.348 91.961,44.254 91.701,44.748 91.961,45.243 
	91.41,45.148 91.02,45.549 90.94,44.996 "/>
<polygon fill="#E8E18E" points="55.849,47.865 56.35,47.617 56.431,47.065 56.821,47.465 57.371,47.37 57.111,47.865 57.371,48.359 
	56.821,48.265 56.431,48.665 56.35,48.112 "/>
<polygon fill="#E8E18E" points="39.957,41.632 40.458,41.385 40.538,40.832 40.928,41.232 41.479,41.138 41.219,41.632 
	41.479,42.127 40.928,42.032 40.538,42.432 40.458,41.879 "/>
<polygon fill="#E8E18E" points="68.003,22.623 68.504,22.376 68.584,21.823 68.974,22.223 69.524,22.129 69.264,22.623 
	69.524,23.118 68.974,23.023 68.584,23.424 68.504,22.871 "/>
<polygon fill="#E8E18E" points="93.867,36.023 94.368,35.776 94.448,35.223 94.838,35.623 95.389,35.529 95.129,36.023 
	95.389,36.518 94.838,36.423 94.448,36.823 94.368,36.27 "/>
<polygon fill="#E8E18E" points="131.573,54.72 132.074,54.473 132.154,53.92 132.544,54.32 133.095,54.226 132.835,54.72 
	133.095,55.215 132.544,55.12 132.154,55.52 132.074,54.967 "/>
<polygon fill="#E8E18E" points="131.885,54.72 132.386,54.473 132.466,53.92 132.856,54.32 133.406,54.226 133.146,54.72 
	133.406,55.215 132.856,55.12 132.466,55.52 132.386,54.967 "/>
<polygon fill="#E8E18E" points="163.358,32.907 163.859,32.66 163.939,32.107 164.329,32.507 164.88,32.412 164.62,32.907 
	164.88,33.401 164.329,33.307 163.939,33.707 163.859,33.154 "/>
</svg>
